<svg xmlns="http://www.w3.org/2000/svg" xmlns:xlink="http://www.w3.org/1999/xlink" width="500" zoomAndPan="magnify" viewBox="0 0 375 374.999991" height="500" preserveAspectRatio="xMidYMid meet" version="1.0"><defs><clipPath id="067a0c81ec"><path d="M 9 142 L 354 142 L 354 348.1875 L 9 348.1875 Z M 9 142 " clip-rule="nonzero"/></clipPath><clipPath id="1652aac850"><path d="M 287 27.1875 L 297 27.1875 L 297 36 L 287 36 Z M 287 27.1875 " clip-rule="nonzero"/></clipPath></defs><path fill="#6b99d2" d="M 175.726562 165.34375 L 176.628906 165.34375 C 175.5625 161.875 175.046875 158.332031 175.074219 154.703125 C 175.074219 152.992188 175.191406 151.285156 175.433594 149.589844 C 175.675781 147.894531 176.035156 146.222656 176.511719 144.578125 C 176.988281 142.933594 177.578125 141.328125 178.28125 139.769531 C 178.988281 138.207031 179.796875 136.703125 180.714844 135.257812 C 181.632812 133.808594 182.644531 132.4375 183.757812 131.132812 C 184.871094 129.832031 186.066406 128.613281 187.351562 127.480469 C 188.636719 126.347656 189.992188 125.3125 191.421875 124.375 C 192.855469 123.433594 194.34375 122.597656 195.894531 121.871094 C 197.441406 121.144531 199.035156 120.527344 200.671875 120.023438 C 202.304688 119.523438 203.96875 119.136719 205.660156 118.871094 C 207.351562 118.605469 209.050781 118.460938 210.761719 118.433594 C 212.472656 118.410156 214.175781 118.507812 215.875 118.722656 C 217.570312 118.941406 219.246094 119.277344 220.894531 119.730469 C 222.542969 120.183594 224.152344 120.753906 225.722656 121.433594 C 227.292969 122.117188 228.804688 122.910156 230.265625 123.804688 C 231.722656 124.703125 233.109375 125.699219 234.425781 126.792969 C 234.726562 125.390625 235.09375 124.003906 235.527344 122.632812 C 235.957031 121.261719 236.449219 119.914062 237.003906 118.589844 C 237.558594 117.265625 238.171875 115.96875 238.84375 114.699219 C 239.515625 113.433594 240.246094 112.199219 241.03125 110.996094 C 241.816406 109.792969 242.65625 108.632812 243.546875 107.507812 C 244.441406 106.382812 245.382812 105.300781 246.375 104.261719 C 247.367188 103.226562 248.402344 102.234375 249.484375 101.292969 C 250.566406 100.347656 251.691406 99.457031 252.855469 98.617188 C 254.019531 97.777344 255.21875 96.996094 256.453125 96.265625 C 257.691406 95.535156 258.957031 94.863281 260.253906 94.25 C 261.550781 93.636719 262.875 93.085938 264.222656 92.59375 C 265.570312 92.101562 266.9375 91.671875 268.324219 91.304688 C 269.710938 90.941406 271.113281 90.636719 272.527344 90.402344 C 273.941406 90.164062 275.363281 89.992188 276.796875 89.882812 C 278.226562 89.777344 279.660156 89.738281 281.09375 89.761719 C 282.527344 89.785156 283.957031 89.875 285.382812 90.03125 C 286.808594 90.1875 288.226562 90.410156 289.632812 90.695312 C 291.039062 90.980469 292.425781 91.332031 293.800781 91.746094 C 295.175781 92.15625 296.527344 92.632812 297.855469 93.171875 C 299.1875 93.710938 300.488281 94.308594 301.765625 94.964844 C 303.039062 95.621094 304.285156 96.335938 305.492188 97.109375 C 306.703125 97.878906 307.875 98.703125 309.011719 99.582031 C 310.144531 100.464844 311.238281 101.390625 312.285156 102.371094 C 313.335938 103.351562 314.335938 104.375 315.292969 105.449219 C 316.25 106.519531 317.152344 107.632812 318.007812 108.785156 C 318.859375 109.941406 319.660156 111.132812 320.402344 112.359375 C 321.148438 113.589844 321.832031 114.847656 322.460938 116.136719 C 323.089844 117.429688 323.660156 118.746094 324.167969 120.089844 C 324.675781 121.433594 325.121094 122.796875 325.503906 124.179688 C 325.890625 125.5625 326.207031 126.960938 326.464844 128.375 C 326.71875 129.789062 326.910156 131.210938 327.035156 132.640625 C 327.160156 134.074219 327.21875 135.507812 327.210938 136.941406 C 327.203125 139.945312 326.902344 142.921875 326.3125 145.863281 C 328.238281 145.601562 330.171875 145.464844 332.117188 145.453125 C 333.191406 145.453125 334.261719 145.492188 335.332031 145.578125 C 336.40625 145.667969 337.46875 145.796875 338.53125 145.96875 C 339.589844 146.144531 340.640625 146.359375 341.683594 146.621094 C 342.726562 146.882812 343.753906 147.1875 344.773438 147.53125 C 345.789062 147.878906 346.789062 148.265625 347.777344 148.691406 C 348.761719 149.121094 349.726562 149.589844 350.675781 150.097656 C 351.621094 150.605469 352.546875 151.152344 353.445312 151.738281 C 354.347656 152.320312 355.226562 152.941406 356.074219 153.597656 C 356.925781 154.253906 357.75 154.945312 358.542969 155.671875 C 359.335938 156.394531 360.097656 157.152344 360.828125 157.941406 C 361.5625 158.726562 362.257812 159.542969 362.921875 160.390625 C 363.585938 161.234375 364.214844 162.105469 364.808594 163.003906 C 365.398438 163.898438 365.953125 164.820312 366.472656 165.761719 C 366.988281 166.707031 367.464844 167.667969 367.902344 168.652344 C 368.339844 169.632812 368.734375 170.632812 369.089844 171.648438 C 369.445312 172.664062 369.757812 173.691406 370.027344 174.730469 C 370.300781 175.773438 370.527344 176.820312 370.710938 177.882812 C 370.894531 178.941406 371.035156 180.007812 371.128906 181.078125 C 371.226562 182.148438 371.277344 183.222656 371.285156 184.296875 C 371.292969 185.375 371.257812 186.445312 371.175781 187.519531 C 371.09375 188.59375 370.96875 189.660156 370.800781 190.722656 C 370.632812 191.785156 370.421875 192.835938 370.164062 193.882812 C 369.910156 194.925781 369.613281 195.957031 369.269531 196.980469 C 368.929688 198 368.546875 199.003906 368.125 199.992188 C 367.703125 200.980469 367.238281 201.949219 366.734375 202.898438 C 366.234375 203.851562 365.691406 204.777344 365.113281 205.683594 C 364.53125 206.589844 363.917969 207.46875 363.265625 208.324219 C 362.613281 209.179688 361.925781 210.003906 361.207031 210.800781 C 360.488281 211.601562 359.734375 212.367188 358.953125 213.105469 C 358.167969 213.839844 357.355469 214.542969 356.515625 215.210938 C 355.671875 215.878906 354.804688 216.511719 353.914062 217.109375 C 353.019531 217.707031 352.105469 218.265625 351.164062 218.789062 C 348.773438 220.40625 346.199219 221.640625 343.441406 222.488281 C 340.683594 223.339844 337.863281 223.769531 334.976562 223.78125 L 175.726562 223.78125 C 174.773438 223.777344 173.824219 223.722656 172.875 223.625 C 171.925781 223.527344 170.984375 223.382812 170.050781 223.191406 C 169.117188 223.003906 168.195312 222.765625 167.285156 222.484375 C 166.371094 222.207031 165.476562 221.878906 164.597656 221.511719 C 163.71875 221.144531 162.859375 220.734375 162.019531 220.28125 C 161.179688 219.828125 160.363281 219.335938 159.570312 218.804688 C 158.78125 218.273438 158.015625 217.703125 157.28125 217.09375 C 156.546875 216.488281 155.839844 215.847656 155.167969 215.171875 C 154.496094 214.496094 153.855469 213.789062 153.25 213.050781 C 152.648438 212.3125 152.082031 211.546875 151.550781 210.75 C 151.023438 209.957031 150.53125 209.140625 150.082031 208.296875 C 149.632812 207.457031 149.226562 206.59375 148.859375 205.710938 C 148.496094 204.832031 148.171875 203.933594 147.894531 203.019531 C 147.617188 202.109375 147.382812 201.183594 147.195312 200.246094 C 147.007812 199.3125 146.867188 198.367188 146.773438 197.417969 C 146.675781 196.46875 146.628906 195.515625 146.625 194.5625 C 146.628906 193.609375 146.675781 192.65625 146.773438 191.707031 C 146.867188 190.757812 147.007812 189.8125 147.195312 188.878906 C 147.382812 187.941406 147.617188 187.015625 147.894531 186.105469 C 148.171875 185.191406 148.496094 184.292969 148.859375 183.414062 C 149.226562 182.53125 149.632812 181.667969 150.082031 180.828125 C 150.53125 179.984375 151.023438 179.167969 151.550781 178.375 C 152.082031 177.582031 152.648438 176.8125 153.25 176.074219 C 153.855469 175.335938 154.496094 174.628906 155.167969 173.953125 C 155.839844 173.277344 156.546875 172.636719 157.28125 172.03125 C 158.015625 171.421875 158.78125 170.851562 159.570312 170.320312 C 160.363281 169.789062 161.179688 169.296875 162.019531 168.84375 C 162.859375 168.390625 163.71875 167.980469 164.597656 167.613281 C 165.476562 167.246094 166.371094 166.917969 167.285156 166.640625 C 168.195312 166.359375 169.117188 166.121094 170.050781 165.933594 C 170.984375 165.742188 171.925781 165.597656 172.875 165.5 C 173.824219 165.402344 174.773438 165.347656 175.726562 165.34375 Z M 175.726562 165.34375 " fill-opacity="1" fill-rule="nonzero"/><g clip-path="url(#067a0c81ec)"><path fill="#26477a" d="M 309.0625 258.648438 L 307.753906 258.648438 C 309.378906 253.3125 310.195312 247.855469 310.207031 242.277344 C 310.207031 239.648438 310.023438 237.03125 309.65625 234.425781 C 309.285156 231.820312 308.734375 229.253906 308 226.726562 C 307.269531 224.199219 306.359375 221.738281 305.277344 219.339844 C 304.195312 216.941406 302.953125 214.632812 301.542969 212.414062 C 300.132812 210.191406 298.574219 208.082031 296.867188 206.082031 C 295.160156 204.082031 293.320312 202.210938 291.347656 200.472656 C 289.375 198.734375 287.289062 197.144531 285.089844 195.703125 C 282.890625 194.261719 280.601562 192.980469 278.222656 191.863281 C 275.84375 190.746094 273.398438 189.800781 270.886719 189.03125 C 268.371094 188.261719 265.816406 187.671875 263.222656 187.265625 C 260.625 186.859375 258.011719 186.636719 255.386719 186.601562 C 252.757812 186.566406 250.140625 186.714844 247.535156 187.050781 C 244.925781 187.382812 242.355469 187.902344 239.824219 188.601562 C 237.289062 189.300781 234.820312 190.179688 232.410156 191.230469 C 230 192.28125 227.679688 193.496094 225.441406 194.878906 C 223.203125 196.257812 221.074219 197.789062 219.054688 199.472656 C 218.589844 197.320312 218.027344 195.195312 217.367188 193.097656 C 216.703125 190.996094 215.949219 188.933594 215.101562 186.902344 C 214.25 184.871094 213.308594 182.886719 212.277344 180.941406 C 211.246094 178.996094 210.128906 177.105469 208.921875 175.265625 C 207.71875 173.421875 206.429688 171.640625 205.0625 169.917969 C 203.695312 168.195312 202.25 166.539062 200.730469 164.945312 C 199.210938 163.355469 197.621094 161.839844 195.960938 160.394531 C 194.300781 158.949219 192.582031 157.582031 190.796875 156.296875 C 189.011719 155.011719 187.171875 153.808594 185.28125 152.691406 C 183.386719 151.574219 181.445312 150.542969 179.457031 149.605469 C 177.46875 148.664062 175.441406 147.820312 173.375 147.066406 C 171.308594 146.3125 169.210938 145.65625 167.085938 145.09375 C 164.960938 144.53125 162.8125 144.070312 160.644531 143.707031 C 158.476562 143.34375 156.296875 143.078125 154.101562 142.914062 C 151.910156 142.75 149.714844 142.6875 147.515625 142.726562 C 145.320312 142.761719 143.125 142.902344 140.941406 143.140625 C 138.753906 143.378906 136.585938 143.71875 134.429688 144.15625 C 132.273438 144.59375 130.144531 145.128906 128.039062 145.761719 C 125.933594 146.398438 123.863281 147.125 121.824219 147.949219 C 119.785156 148.773438 117.785156 149.691406 115.832031 150.695312 C 113.875 151.703125 111.972656 152.796875 110.117188 153.980469 C 108.261719 155.164062 106.464844 156.425781 104.726562 157.773438 C 102.988281 159.121094 101.3125 160.546875 99.707031 162.046875 C 98.097656 163.546875 96.558594 165.117188 95.09375 166.757812 C 93.628906 168.402344 92.246094 170.105469 90.9375 171.875 C 89.628906 173.644531 88.402344 175.46875 87.261719 177.351562 C 86.121094 179.234375 85.066406 181.164062 84.101562 183.140625 C 83.136719 185.117188 82.265625 187.136719 81.484375 189.195312 C 80.707031 191.253906 80.023438 193.34375 79.433594 195.464844 C 78.84375 197.585938 78.355469 199.730469 77.960938 201.894531 C 77.570312 204.0625 77.277344 206.238281 77.085938 208.433594 C 76.894531 210.625 76.800781 212.824219 76.808594 215.023438 C 76.828125 219.648438 77.265625 224.230469 78.117188 228.773438 C 75.164062 228.347656 72.191406 228.128906 69.207031 228.121094 C 67.5625 228.121094 65.917969 228.191406 64.277344 228.328125 C 62.636719 228.464844 61.003906 228.667969 59.382812 228.9375 C 57.757812 229.210938 56.148438 229.546875 54.554688 229.949219 C 52.957031 230.355469 51.378906 230.824219 49.824219 231.355469 C 48.265625 231.890625 46.734375 232.488281 45.226562 233.148438 C 43.714844 233.808594 42.238281 234.527344 40.789062 235.308594 C 39.339844 236.09375 37.925781 236.933594 36.546875 237.832031 C 35.164062 238.730469 33.824219 239.683594 32.523438 240.691406 C 31.222656 241.699219 29.964844 242.761719 28.75 243.871094 C 27.535156 244.984375 26.367188 246.144531 25.25 247.355469 C 24.128906 248.5625 23.0625 249.816406 22.046875 251.113281 C 21.03125 252.410156 20.070312 253.746094 19.164062 255.121094 C 18.257812 256.496094 17.410156 257.90625 16.617188 259.351562 C 15.828125 260.796875 15.097656 262.273438 14.429688 263.777344 C 13.761719 265.285156 13.15625 266.816406 12.613281 268.371094 C 12.070312 269.925781 11.589844 271.503906 11.175781 273.097656 C 10.761719 274.691406 10.414062 276.300781 10.132812 277.925781 C 9.851562 279.550781 9.640625 281.179688 9.492188 282.824219 C 9.34375 284.464844 9.265625 286.109375 9.253906 287.757812 C 9.242188 289.40625 9.296875 291.050781 9.417969 292.695312 C 9.542969 294.335938 9.734375 295.972656 9.992188 297.601562 C 10.25 299.226562 10.574219 300.839844 10.964844 302.441406 C 11.355469 304.042969 11.808594 305.625 12.328125 307.1875 C 12.851562 308.753906 13.433594 310.292969 14.082031 311.808594 C 14.726562 313.324219 15.4375 314.808594 16.203125 316.265625 C 16.972656 317.722656 17.800781 319.144531 18.6875 320.535156 C 19.574219 321.921875 20.515625 323.273438 21.511719 324.585938 C 22.507812 325.894531 23.558594 327.164062 24.660156 328.386719 C 25.761719 329.613281 26.910156 330.789062 28.109375 331.921875 C 29.308594 333.050781 30.550781 334.128906 31.835938 335.15625 C 33.121094 336.183594 34.449219 337.15625 35.816406 338.074219 C 37.183594 338.996094 38.585938 339.855469 40.023438 340.65625 C 43.6875 343.113281 47.628906 344.984375 51.847656 346.265625 C 56.066406 347.550781 60.382812 348.191406 64.792969 348.1875 L 309.0625 348.1875 C 310.527344 348.183594 311.988281 348.109375 313.441406 347.964844 C 314.898438 347.820312 316.347656 347.601562 317.78125 347.3125 C 319.214844 347.027344 320.632812 346.667969 322.035156 346.242188 C 323.433594 345.8125 324.8125 345.320312 326.164062 344.757812 C 327.515625 344.195312 328.835938 343.570312 330.125 342.878906 C 331.417969 342.183594 332.671875 341.433594 333.886719 340.617188 C 335.105469 339.800781 336.277344 338.929688 337.410156 338 C 338.539062 337.070312 339.625 336.085938 340.660156 335.050781 C 341.695312 334.015625 342.675781 332.929688 343.605469 331.796875 C 344.535156 330.664062 345.40625 329.488281 346.21875 328.269531 C 347.03125 327.054688 347.785156 325.796875 348.476562 324.503906 C 349.167969 323.214844 349.792969 321.890625 350.355469 320.539062 C 350.914062 319.183594 351.410156 317.804688 351.835938 316.40625 C 352.261719 315.003906 352.621094 313.582031 352.90625 312.144531 C 353.195312 310.710938 353.410156 309.261719 353.558594 307.804688 C 353.703125 306.34375 353.777344 304.882812 353.78125 303.417969 C 353.773438 301.953125 353.699219 300.492188 353.550781 299.035156 C 353.402344 297.578125 353.183594 296.128906 352.894531 294.695312 C 352.605469 293.257812 352.246094 291.839844 351.816406 290.441406 C 351.390625 289.039062 350.894531 287.664062 350.332031 286.308594 C 349.769531 284.957031 349.144531 283.636719 348.453125 282.34375 C 347.761719 281.054688 347.007812 279.800781 346.195312 278.582031 C 345.378906 277.367188 344.507812 276.191406 343.582031 275.058594 C 342.652344 273.929688 341.667969 272.84375 340.636719 271.808594 C 339.601562 270.773438 338.519531 269.789062 337.386719 268.859375 C 336.257812 267.929688 335.082031 267.058594 333.867188 266.242188 C 332.652344 265.429688 331.398438 264.675781 330.109375 263.980469 C 328.820312 263.289062 327.5 262.664062 326.148438 262.097656 C 324.800781 261.535156 323.425781 261.039062 322.027344 260.613281 C 320.625 260.183594 319.210938 259.824219 317.777344 259.535156 C 316.339844 259.246094 314.894531 259.027344 313.441406 258.878906 C 311.984375 258.730469 310.527344 258.652344 309.0625 258.648438 Z M 309.0625 258.648438 " fill-opacity="1" fill-rule="nonzero"/></g><path fill="#26477a" d="M 189.054688 69.339844 C 189.054688 69.621094 189.027344 69.90625 188.96875 70.183594 C 188.914062 70.464844 188.832031 70.734375 188.722656 71 C 188.613281 71.261719 188.480469 71.511719 188.324219 71.75 C 188.164062 71.984375 187.984375 72.203125 187.785156 72.40625 C 187.582031 72.605469 187.363281 72.785156 187.128906 72.945312 C 186.890625 73.101562 186.640625 73.238281 186.378906 73.347656 C 186.117188 73.453125 185.84375 73.535156 185.566406 73.59375 C 185.285156 73.648438 185.003906 73.675781 184.71875 73.675781 C 184.4375 73.675781 184.152344 73.648438 183.875 73.59375 C 183.597656 73.535156 183.324219 73.453125 183.0625 73.347656 C 182.800781 73.238281 182.550781 73.101562 182.3125 72.945312 C 182.078125 72.785156 181.859375 72.605469 181.65625 72.40625 C 181.457031 72.203125 181.277344 71.984375 181.117188 71.75 C 180.960938 71.511719 180.828125 71.261719 180.71875 71 C 180.609375 70.734375 180.527344 70.464844 180.472656 70.183594 C 180.414062 69.90625 180.386719 69.621094 180.386719 69.339844 C 180.386719 69.054688 180.414062 68.769531 180.472656 68.492188 C 180.527344 68.210938 180.609375 67.941406 180.71875 67.679688 C 180.828125 67.414062 180.960938 67.164062 181.117188 66.929688 C 181.277344 66.691406 181.457031 66.472656 181.65625 66.269531 C 181.859375 66.070312 182.078125 65.890625 182.3125 65.730469 C 182.550781 65.574219 182.800781 65.441406 183.0625 65.332031 C 183.324219 65.222656 183.597656 65.140625 183.875 65.082031 C 184.152344 65.027344 184.4375 65 184.71875 65 C 185.003906 65 185.285156 65.027344 185.566406 65.082031 C 185.84375 65.140625 186.117188 65.222656 186.378906 65.332031 C 186.640625 65.441406 186.890625 65.574219 187.128906 65.730469 C 187.363281 65.890625 187.582031 66.070312 187.785156 66.269531 C 187.984375 66.472656 188.164062 66.691406 188.324219 66.929688 C 188.480469 67.164062 188.613281 67.414062 188.722656 67.679688 C 188.832031 67.941406 188.914062 68.210938 188.96875 68.492188 C 189.027344 68.769531 189.054688 69.054688 189.054688 69.339844 Z M 189.054688 69.339844 " fill-opacity="1" fill-rule="nonzero"/><g clip-path="url(#1652aac850)"><path fill="#26477a" d="M 296.226562 31.523438 C 296.226562 31.808594 296.199219 32.09375 296.144531 32.371094 C 296.089844 32.652344 296.007812 32.921875 295.898438 33.183594 C 295.789062 33.449219 295.65625 33.699219 295.496094 33.933594 C 295.339844 34.171875 295.160156 34.390625 294.957031 34.59375 C 294.757812 34.792969 294.539062 34.972656 294.300781 35.132812 C 294.066406 35.289062 293.816406 35.425781 293.554688 35.53125 C 293.289062 35.640625 293.019531 35.722656 292.742188 35.78125 C 292.460938 35.835938 292.179688 35.863281 291.894531 35.863281 C 291.609375 35.863281 291.328125 35.835938 291.050781 35.78125 C 290.769531 35.722656 290.5 35.640625 290.238281 35.53125 C 289.972656 35.425781 289.722656 35.289062 289.488281 35.132812 C 289.25 34.972656 289.03125 34.792969 288.832031 34.59375 C 288.628906 34.390625 288.449219 34.171875 288.292969 33.933594 C 288.132812 33.699219 288 33.449219 287.890625 33.183594 C 287.785156 32.921875 287.703125 32.652344 287.644531 32.371094 C 287.589844 32.09375 287.5625 31.808594 287.5625 31.523438 C 287.5625 31.242188 287.589844 30.957031 287.644531 30.679688 C 287.699219 30.398438 287.785156 30.128906 287.890625 29.867188 C 288 29.601562 288.132812 29.351562 288.292969 29.117188 C 288.449219 28.878906 288.628906 28.660156 288.832031 28.457031 C 289.03125 28.257812 289.25 28.078125 289.488281 27.917969 C 289.722656 27.761719 289.972656 27.625 290.238281 27.519531 C 290.5 27.410156 290.769531 27.328125 291.050781 27.269531 C 291.328125 27.214844 291.609375 27.1875 291.894531 27.1875 C 292.179688 27.1875 292.460938 27.214844 292.742188 27.269531 C 293.019531 27.328125 293.289062 27.410156 293.554688 27.519531 C 293.816406 27.625 294.066406 27.761719 294.300781 27.917969 C 294.539062 28.078125 294.757812 28.257812 294.957031 28.457031 C 295.160156 28.660156 295.339844 28.878906 295.496094 29.117188 C 295.65625 29.351562 295.789062 29.601562 295.898438 29.867188 C 296.007812 30.128906 296.089844 30.398438 296.144531 30.679688 C 296.199219 30.957031 296.226562 31.242188 296.226562 31.523438 Z M 296.226562 31.523438 " fill-opacity="1" fill-rule="nonzero"/></g><path fill="#26477a" d="M 76.726562 44.210938 C 76.726562 44.496094 76.699219 44.777344 76.644531 45.058594 C 76.589844 45.335938 76.507812 45.609375 76.398438 45.871094 C 76.289062 46.132812 76.15625 46.382812 75.996094 46.621094 C 75.839844 46.859375 75.660156 47.078125 75.460938 47.277344 C 75.257812 47.480469 75.039062 47.660156 74.800781 47.816406 C 74.566406 47.976562 74.316406 48.109375 74.054688 48.21875 C 73.789062 48.328125 73.519531 48.410156 73.242188 48.464844 C 72.960938 48.523438 72.679688 48.550781 72.394531 48.550781 C 72.109375 48.550781 71.828125 48.523438 71.550781 48.464844 C 71.269531 48.410156 71 48.328125 70.738281 48.21875 C 70.472656 48.109375 70.226562 47.976562 69.988281 47.816406 C 69.75 47.660156 69.53125 47.480469 69.332031 47.277344 C 69.128906 47.078125 68.949219 46.859375 68.792969 46.621094 C 68.636719 46.382812 68.5 46.132812 68.390625 45.871094 C 68.285156 45.609375 68.203125 45.335938 68.144531 45.058594 C 68.089844 44.777344 68.0625 44.496094 68.0625 44.210938 C 68.0625 43.925781 68.089844 43.644531 68.144531 43.363281 C 68.203125 43.085938 68.285156 42.816406 68.390625 42.550781 C 68.5 42.289062 68.636719 42.039062 68.792969 41.800781 C 68.949219 41.566406 69.128906 41.34375 69.332031 41.144531 C 69.53125 40.941406 69.75 40.761719 69.988281 40.605469 C 70.226562 40.445312 70.472656 40.3125 70.738281 40.203125 C 71 40.09375 71.269531 40.011719 71.550781 39.957031 C 71.828125 39.902344 72.109375 39.875 72.394531 39.875 C 72.679688 39.875 72.960938 39.902344 73.242188 39.957031 C 73.519531 40.011719 73.789062 40.09375 74.054688 40.203125 C 74.316406 40.3125 74.566406 40.445312 74.800781 40.605469 C 75.039062 40.761719 75.257812 40.941406 75.460938 41.144531 C 75.660156 41.34375 75.839844 41.566406 75.996094 41.800781 C 76.15625 42.039062 76.289062 42.289062 76.398438 42.550781 C 76.507812 42.816406 76.589844 43.085938 76.644531 43.363281 C 76.699219 43.644531 76.726562 43.925781 76.726562 44.210938 Z M 76.726562 44.210938 " fill-opacity="1" fill-rule="nonzero"/><path fill="#26477a" d="M 353.78125 114.515625 C 353.78125 114.800781 353.753906 115.085938 353.695312 115.363281 C 353.640625 115.644531 353.558594 115.914062 353.449219 116.175781 C 353.339844 116.441406 353.207031 116.691406 353.050781 116.925781 C 352.890625 117.164062 352.710938 117.382812 352.511719 117.585938 C 352.308594 117.785156 352.089844 117.964844 351.855469 118.125 C 351.617188 118.28125 351.367188 118.414062 351.105469 118.523438 C 350.84375 118.632812 350.570312 118.714844 350.292969 118.773438 C 350.015625 118.828125 349.730469 118.855469 349.449219 118.855469 C 349.164062 118.855469 348.882812 118.828125 348.601562 118.773438 C 348.324219 118.714844 348.050781 118.632812 347.789062 118.523438 C 347.527344 118.414062 347.277344 118.28125 347.039062 118.125 C 346.804688 117.964844 346.585938 117.785156 346.382812 117.585938 C 346.183594 117.382812 346.003906 117.164062 345.84375 116.925781 C 345.6875 116.691406 345.554688 116.441406 345.445312 116.175781 C 345.335938 115.914062 345.253906 115.644531 345.199219 115.363281 C 345.140625 115.085938 345.113281 114.800781 345.113281 114.515625 C 345.113281 114.230469 345.140625 113.949219 345.199219 113.671875 C 345.253906 113.390625 345.335938 113.121094 345.445312 112.855469 C 345.554688 112.59375 345.6875 112.34375 345.84375 112.105469 C 346.003906 111.871094 346.183594 111.652344 346.382812 111.449219 C 346.585938 111.25 346.804688 111.070312 347.039062 110.910156 C 347.277344 110.753906 347.527344 110.617188 347.789062 110.507812 C 348.050781 110.402344 348.324219 110.316406 348.601562 110.261719 C 348.882812 110.207031 349.164062 110.179688 349.449219 110.179688 C 349.730469 110.179688 350.015625 110.207031 350.292969 110.261719 C 350.570312 110.316406 350.84375 110.402344 351.105469 110.507812 C 351.367188 110.617188 351.617188 110.753906 351.855469 110.910156 C 352.089844 111.070312 352.308594 111.25 352.511719 111.449219 C 352.710938 111.652344 352.890625 111.871094 353.050781 112.105469 C 353.207031 112.34375 353.339844 112.59375 353.449219 112.855469 C 353.558594 113.121094 353.640625 113.390625 353.695312 113.671875 C 353.753906 113.949219 353.78125 114.230469 353.78125 114.515625 Z M 353.78125 114.515625 " fill-opacity="1" fill-rule="nonzero"/><path fill="#26477a" d="M 9.121094 170.992188 C 9.121094 171.277344 9.09375 171.558594 9.039062 171.835938 C 8.980469 172.117188 8.898438 172.386719 8.789062 172.652344 C 8.683594 172.914062 8.546875 173.164062 8.390625 173.402344 C 8.230469 173.636719 8.054688 173.855469 7.851562 174.058594 C 7.652344 174.257812 7.429688 174.4375 7.195312 174.597656 C 6.957031 174.757812 6.707031 174.890625 6.445312 175 C 6.183594 175.109375 5.914062 175.191406 5.632812 175.246094 C 5.355469 175.300781 5.074219 175.328125 4.789062 175.328125 C 4.503906 175.328125 4.222656 175.300781 3.941406 175.246094 C 3.664062 175.191406 3.394531 175.109375 3.128906 175 C 2.867188 174.890625 2.617188 174.757812 2.378906 174.597656 C 2.144531 174.4375 1.925781 174.257812 1.722656 174.058594 C 1.523438 173.855469 1.34375 173.636719 1.183594 173.402344 C 1.027344 173.164062 0.894531 172.914062 0.785156 172.652344 C 0.675781 172.386719 0.59375 172.117188 0.539062 171.835938 C 0.484375 171.558594 0.457031 171.277344 0.457031 170.992188 C 0.457031 170.707031 0.484375 170.425781 0.539062 170.144531 C 0.59375 169.867188 0.675781 169.59375 0.785156 169.332031 C 0.894531 169.066406 1.027344 168.816406 1.183594 168.582031 C 1.34375 168.34375 1.523438 168.125 1.722656 167.921875 C 1.925781 167.722656 2.144531 167.542969 2.378906 167.382812 C 2.617188 167.226562 2.867188 167.09375 3.128906 166.984375 C 3.394531 166.875 3.664062 166.792969 3.941406 166.738281 C 4.222656 166.679688 4.503906 166.652344 4.789062 166.652344 C 5.074219 166.652344 5.355469 166.679688 5.632812 166.738281 C 5.914062 166.792969 6.183594 166.875 6.445312 166.984375 C 6.707031 167.09375 6.957031 167.226562 7.195312 167.382812 C 7.429688 167.542969 7.652344 167.722656 7.851562 167.921875 C 8.054688 168.125 8.230469 168.34375 8.390625 168.582031 C 8.546875 168.816406 8.683594 169.066406 8.789062 169.332031 C 8.898438 169.59375 8.980469 169.867188 9.039062 170.144531 C 9.09375 170.425781 9.121094 170.707031 9.121094 170.992188 Z M 9.121094 170.992188 " fill-opacity="1" fill-rule="nonzero"/><path fill="#ffb544" d="M 178.835938 226.972656 C 176.863281 228.503906 174.828125 229.945312 172.730469 231.296875 C 170.636719 232.648438 168.484375 233.910156 166.277344 235.074219 C 164.070312 236.238281 161.816406 237.300781 159.515625 238.269531 C 157.21875 239.238281 154.878906 240.101562 152.503906 240.863281 C 150.128906 241.628906 147.726562 242.285156 145.292969 242.839844 C 142.859375 243.390625 140.410156 243.835938 137.9375 244.175781 C 135.464844 244.511719 132.984375 244.742188 130.492188 244.863281 C 128 244.984375 125.507812 244.996094 123.015625 244.898438 C 120.523438 244.804688 118.039062 244.597656 115.566406 244.285156 C 113.089844 243.96875 110.636719 243.550781 108.195312 243.019531 C 105.757812 242.492188 103.347656 241.859375 100.964844 241.117188 C 98.585938 240.378906 96.238281 239.535156 93.929688 238.59375 C 91.621094 237.648438 89.355469 236.605469 87.136719 235.460938 C 84.921875 234.320312 82.757812 233.082031 80.644531 231.75 C 78.535156 230.417969 76.488281 228.996094 74.5 227.484375 C 72.515625 225.976562 70.597656 224.378906 68.753906 222.703125 C 66.90625 221.023438 65.136719 219.265625 63.441406 217.433594 C 61.746094 215.601562 60.136719 213.695312 58.609375 211.722656 C 57.082031 209.75 55.640625 207.710938 54.292969 205.613281 C 52.941406 203.511719 51.6875 201.355469 50.523438 199.148438 C 49.363281 196.9375 48.296875 194.679688 47.332031 192.378906 C 46.367188 190.074219 45.503906 187.734375 44.746094 185.355469 C 43.984375 182.976562 43.328125 180.570312 42.777344 178.136719 C 42.226562 175.699219 41.78125 173.246094 41.445312 170.769531 C 41.109375 168.296875 40.878906 165.8125 40.757812 163.316406 C 40.640625 160.824219 40.628906 158.328125 40.726562 155.832031 C 40.824219 153.335938 41.03125 150.851562 41.34375 148.375 C 41.660156 145.894531 42.082031 143.4375 42.609375 140.996094 C 43.140625 138.554688 43.773438 136.144531 44.511719 133.757812 C 45.253906 131.375 46.09375 129.023438 47.039062 126.714844 C 47.984375 124.402344 49.027344 122.136719 50.167969 119.917969 C 51.3125 117.695312 52.546875 115.53125 53.878906 113.417969 C 55.210938 111.304688 56.628906 109.257812 58.140625 107.269531 C 59.648438 105.28125 61.242188 103.363281 62.921875 101.515625 C 64.597656 99.664062 66.351562 97.894531 68.183594 96.199219 C 70.015625 94.503906 71.917969 92.890625 73.890625 91.363281 C 75.863281 89.835938 77.898438 88.394531 79.996094 87.042969 C 82.09375 85.691406 84.246094 84.4375 86.457031 83.273438 C 88.664062 82.113281 90.917969 81.046875 93.21875 80.082031 C 95.519531 79.117188 97.855469 78.253906 100.230469 77.492188 C 102.609375 76.734375 105.011719 76.078125 107.445312 75.527344 C 109.878906 74.976562 112.332031 74.53125 114.800781 74.195312 C 117.273438 73.859375 119.753906 73.632812 122.246094 73.511719 C 124.738281 73.394531 127.230469 73.382812 129.722656 73.484375 C 132.214844 73.582031 134.699219 73.789062 137.171875 74.105469 C 139.648438 74.421875 142.105469 74.84375 144.542969 75.375 C 146.980469 75.90625 149.386719 76.542969 151.769531 77.28125 C 154.152344 78.023438 156.496094 78.867188 158.804688 79.816406 C 157.566406 79.933594 156.332031 80.085938 155.097656 80.269531 C 153.867188 80.449219 152.640625 80.664062 151.421875 80.90625 C 150.199219 81.152344 148.984375 81.425781 147.777344 81.730469 C 146.570312 82.035156 145.371094 82.371094 144.183594 82.738281 C 142.992188 83.101562 141.8125 83.496094 140.640625 83.921875 C 139.46875 84.347656 138.3125 84.800781 137.164062 85.285156 C 136.015625 85.769531 134.882812 86.28125 133.757812 86.820312 C 132.636719 87.359375 131.53125 87.929688 130.4375 88.527344 C 129.34375 89.121094 128.265625 89.746094 127.203125 90.394531 C 126.140625 91.046875 125.097656 91.722656 124.070312 92.425781 C 123.039062 93.128906 122.03125 93.859375 121.039062 94.613281 C 120.046875 95.367188 119.078125 96.144531 118.125 96.949219 C 117.171875 97.753906 116.242188 98.578125 115.332031 99.429688 C 114.417969 100.277344 113.53125 101.152344 112.664062 102.046875 C 111.796875 102.941406 110.953125 103.855469 110.132812 104.792969 C 109.3125 105.730469 108.515625 106.6875 107.742188 107.664062 C 106.96875 108.644531 106.222656 109.640625 105.5 110.65625 C 104.777344 111.667969 104.082031 112.703125 103.410156 113.753906 C 102.738281 114.800781 102.09375 115.867188 101.476562 116.953125 C 100.859375 118.035156 100.273438 119.132812 99.710938 120.242188 C 99.148438 121.355469 98.613281 122.480469 98.109375 123.621094 C 97.601562 124.761719 97.128906 125.910156 96.679688 127.074219 C 96.230469 128.238281 95.8125 129.410156 95.425781 130.597656 C 95.035156 131.78125 94.679688 132.972656 94.351562 134.175781 C 94.019531 135.378906 93.722656 136.589844 93.457031 137.804688 C 93.1875 139.023438 92.949219 140.246094 92.746094 141.476562 C 92.539062 142.703125 92.363281 143.9375 92.21875 145.175781 C 92.074219 146.414062 91.960938 147.65625 91.878906 148.898438 C 91.796875 150.144531 91.746094 151.386719 91.726562 152.632812 C 91.707031 153.878906 91.722656 155.125 91.765625 156.371094 C 91.808594 157.617188 91.882812 158.863281 91.988281 160.105469 C 92.09375 161.347656 92.230469 162.585938 92.398438 163.820312 C 92.566406 165.054688 92.765625 166.285156 92.996094 167.511719 C 93.226562 168.734375 93.484375 169.953125 93.777344 171.164062 C 94.070312 172.378906 94.390625 173.582031 94.742188 174.777344 C 95.09375 175.972656 95.476562 177.160156 95.886719 178.335938 C 96.296875 179.511719 96.738281 180.675781 97.207031 181.832031 C 97.675781 182.984375 98.175781 184.128906 98.703125 185.257812 C 99.230469 186.386719 99.785156 187.5 100.371094 188.601562 C 100.953125 189.703125 101.5625 190.789062 102.199219 191.859375 C 102.839844 192.929688 103.503906 193.984375 104.195312 195.019531 C 104.886719 196.058594 105.601562 197.078125 106.34375 198.078125 C 107.085938 199.078125 107.851562 200.058594 108.644531 201.023438 C 109.433594 201.984375 110.25 202.925781 111.089844 203.847656 C 111.925781 204.769531 112.789062 205.667969 113.671875 206.546875 C 114.554688 207.425781 115.460938 208.28125 116.386719 209.113281 C 117.316406 209.945312 118.261719 210.753906 119.230469 211.535156 C 120.199219 212.320312 121.183594 213.082031 122.191406 213.816406 C 123.195312 214.550781 124.21875 215.257812 125.261719 215.941406 C 126.300781 216.625 127.359375 217.28125 128.433594 217.914062 C 129.507812 218.542969 130.597656 219.144531 131.703125 219.71875 C 132.808594 220.296875 133.925781 220.84375 135.058594 221.359375 C 136.191406 221.878906 137.335938 222.371094 138.492188 222.832031 C 139.648438 223.292969 140.816406 223.722656 141.992188 224.125 C 143.171875 224.527344 144.359375 224.898438 145.558594 225.242188 C 146.753906 225.585938 147.957031 225.898438 149.171875 226.179688 C 150.382812 226.460938 151.605469 226.710938 152.828125 226.933594 C 154.054688 227.152344 155.285156 227.339844 156.519531 227.5 C 157.753906 227.660156 158.992188 227.785156 160.234375 227.882812 C 161.476562 227.976562 162.71875 228.042969 163.964844 228.074219 C 165.207031 228.109375 166.453125 228.109375 167.695312 228.082031 C 168.941406 228.050781 170.183594 227.992188 171.425781 227.898438 C 172.667969 227.808594 173.90625 227.683594 175.140625 227.53125 C 176.378906 227.375 177.609375 227.191406 178.835938 226.972656 Z M 178.835938 226.972656 " fill-opacity="1" fill-rule="nonzero"/></svg>