<svg xmlns="http://www.w3.org/2000/svg" xmlns:xlink="http://www.w3.org/1999/xlink" width="500" zoomAndPan="magnify" viewBox="0 0 375 374.999991" height="500" preserveAspectRatio="xMidYMid meet" version="1.0"><defs><clipPath id="61a73d46a7"><path d="M 130 21.328125 L 146 21.328125 L 146 62 L 130 62 Z M 130 21.328125 " clip-rule="nonzero"/></clipPath><clipPath id="4e7ee60df3"><path d="M 34 182 L 318 182 L 318 353.578125 L 34 353.578125 Z M 34 182 " clip-rule="nonzero"/></clipPath></defs><path fill="#aee3fc" d="M 332.992188 166.792969 C 334.929688 161.0625 335.980469 154.917969 335.980469 148.53125 C 335.980469 117.046875 310.460938 91.53125 278.980469 91.53125 C 256.386719 91.53125 236.859375 104.679688 227.640625 123.742188 C 221.292969 120.148438 213.964844 118.085938 206.144531 118.085938 C 186.121094 118.085938 169.25 131.558594 164.074219 149.929688 C 159.234375 148.597656 154.140625 147.886719 148.878906 147.886719 C 117.25 147.886719 91.609375 173.527344 91.609375 205.15625 C 91.609375 236.78125 117.25 262.421875 148.878906 262.421875 L 326.988281 262.421875 C 353.503906 262.421875 375 240.929688 375 214.417969 C 375 189.933594 356.671875 169.746094 332.992188 166.792969 " fill-opacity="1" fill-rule="nonzero"/><path fill="#f9ae00" d="M 90.886719 215.375 C 74.816406 201.933594 64.59375 181.734375 64.59375 159.148438 C 64.59375 118.683594 97.394531 85.886719 137.855469 85.886719 C 178.316406 85.886719 211.117188 118.683594 211.117188 159.148438 C 211.117188 199.609375 178.316406 232.410156 137.855469 232.410156 C 119.980469 232.410156 103.601562 226.007812 90.886719 215.375 " fill-opacity="1" fill-rule="nonzero"/><g clip-path="url(#61a73d46a7)"><path fill="#fdd83b" d="M 137.855469 61.300781 C 133.730469 61.300781 130.386719 57.957031 130.386719 53.828125 L 130.386719 28.765625 C 130.386719 24.636719 133.730469 21.292969 137.855469 21.292969 C 141.980469 21.292969 145.324219 24.636719 145.324219 28.765625 L 145.324219 53.828125 C 145.324219 57.957031 141.980469 61.300781 137.855469 61.300781 " fill-opacity="1" fill-rule="nonzero"/></g><path fill="#fdd83b" d="M 137.855469 297 C 133.730469 297 130.386719 293.65625 130.386719 289.53125 L 130.386719 264.464844 C 130.386719 260.339844 133.730469 256.996094 137.855469 256.996094 C 141.980469 256.996094 145.324219 260.339844 145.324219 264.464844 L 145.324219 289.53125 C 145.324219 293.65625 141.980469 297 137.855469 297 " fill-opacity="1" fill-rule="nonzero"/><path fill="#fdd83b" d="M 85.203125 75.410156 C 82.621094 75.410156 80.113281 74.070312 78.730469 71.671875 L 66.191406 49.964844 C 64.128906 46.390625 65.355469 41.824219 68.929688 39.761719 C 72.5 37.699219 77.070312 38.921875 79.132812 42.496094 L 91.667969 64.203125 C 93.730469 67.777344 92.503906 72.34375 88.933594 74.40625 C 87.757812 75.085938 86.46875 75.410156 85.203125 75.410156 " fill-opacity="1" fill-rule="nonzero"/><path fill="#fdd83b" d="M 203.054688 279.535156 C 200.472656 279.535156 197.964844 278.195312 196.578125 275.800781 L 184.046875 254.09375 C 181.980469 250.519531 183.207031 245.949219 186.777344 243.886719 C 190.355469 241.824219 194.921875 243.046875 196.984375 246.621094 L 209.515625 268.328125 C 211.578125 271.902344 210.355469 276.46875 206.78125 278.535156 C 205.605469 279.214844 204.320312 279.535156 203.054688 279.535156 " fill-opacity="1" fill-rule="nonzero"/><path fill="#fdd83b" d="M 46.640625 113.960938 C 45.371094 113.960938 44.089844 113.636719 42.914062 112.957031 L 21.203125 100.425781 C 17.632812 98.363281 16.40625 93.792969 18.46875 90.21875 C 20.53125 86.648438 25.101562 85.421875 28.671875 87.484375 L 50.382812 100.019531 C 53.953125 102.082031 55.179688 106.652344 53.117188 110.222656 C 51.734375 112.617188 49.222656 113.960938 46.640625 113.960938 " fill-opacity="1" fill-rule="nonzero"/><path fill="#fdd83b" d="M 250.765625 231.808594 C 249.5 231.808594 248.214844 231.488281 247.035156 230.808594 L 225.328125 218.277344 C 221.757812 216.214844 220.53125 211.644531 222.59375 208.074219 C 224.65625 204.496094 229.226562 203.273438 232.800781 205.339844 L 254.507812 217.871094 C 258.082031 219.933594 259.304688 224.5 257.238281 228.074219 C 255.855469 230.472656 253.347656 231.808594 250.765625 231.808594 " fill-opacity="1" fill-rule="nonzero"/><path fill="#fdd83b" d="M 32.535156 166.621094 L 7.472656 166.621094 C 3.34375 166.621094 0 163.273438 0 159.148438 C 0 155.023438 3.34375 151.679688 7.472656 151.679688 L 32.535156 151.679688 C 36.664062 151.679688 40.007812 155.023438 40.007812 159.148438 C 40.007812 163.273438 36.664062 166.621094 32.535156 166.621094 " fill-opacity="1" fill-rule="nonzero"/><path fill="#fdd83b" d="M 24.945312 231.808594 C 22.363281 231.808594 19.855469 230.472656 18.46875 228.074219 C 16.40625 224.5 17.632812 219.933594 21.203125 217.871094 L 42.914062 205.339844 C 46.484375 203.273438 51.054688 204.5 53.117188 208.074219 C 55.179688 211.644531 53.953125 216.214844 50.382812 218.277344 L 28.671875 230.808594 C 27.496094 231.488281 26.214844 231.808594 24.945312 231.808594 " fill-opacity="1" fill-rule="nonzero"/><path fill="#fdd83b" d="M 229.070312 113.960938 C 226.492188 113.960938 223.976562 112.621094 222.59375 110.222656 C 220.53125 106.652344 221.757812 102.082031 225.328125 100.019531 L 247.035156 87.484375 C 250.609375 85.421875 255.179688 86.644531 257.238281 90.21875 C 259.304688 93.792969 258.082031 98.363281 254.507812 100.425781 L 232.800781 112.957031 C 231.625 113.636719 230.339844 113.960938 229.070312 113.960938 " fill-opacity="1" fill-rule="nonzero"/><path fill="#fdd83b" d="M 72.65625 279.535156 C 71.390625 279.535156 70.105469 279.214844 68.929688 278.535156 C 65.355469 276.46875 64.128906 271.902344 66.191406 268.328125 L 78.730469 246.621094 C 80.792969 243.046875 85.359375 241.824219 88.933594 243.886719 C 92.503906 245.949219 93.730469 250.519531 91.667969 254.09375 L 79.132812 275.800781 C 77.75 278.195312 75.238281 279.535156 72.65625 279.535156 " fill-opacity="1" fill-rule="nonzero"/><path fill="#fdd83b" d="M 190.507812 75.410156 C 189.242188 75.410156 187.957031 75.085938 186.777344 74.40625 C 183.207031 72.34375 181.980469 67.777344 184.046875 64.203125 L 196.578125 42.496094 C 198.640625 38.921875 203.210938 37.695312 206.78125 39.761719 C 210.355469 41.824219 211.578125 46.390625 209.515625 49.964844 L 196.984375 71.671875 C 195.601562 74.070312 193.089844 75.410156 190.507812 75.410156 " fill-opacity="1" fill-rule="nonzero"/><g clip-path="url(#4e7ee60df3)"><path fill="#d7f2ff" d="M 275.714844 258.003906 C 277.652344 252.269531 278.703125 246.125 278.703125 239.738281 C 278.703125 208.257812 253.179688 182.738281 221.703125 182.738281 C 199.109375 182.738281 179.582031 195.886719 170.363281 214.949219 C 164.011719 211.359375 156.683594 209.296875 148.867188 209.296875 C 128.84375 209.296875 111.972656 222.765625 106.792969 241.136719 C 101.957031 239.804688 96.859375 239.09375 91.601562 239.09375 C 59.972656 239.09375 34.332031 264.734375 34.332031 296.363281 C 34.332031 327.992188 59.972656 353.632812 91.601562 353.632812 L 269.710938 353.632812 C 296.226562 353.632812 317.71875 332.136719 317.71875 305.625 C 317.71875 281.140625 299.390625 260.957031 275.714844 258.003906 " fill-opacity="1" fill-rule="nonzero"/></g></svg>