<?xml version="1.0" encoding="UTF-8"?>
<svg version="1.1" xmlns="http://www.w3.org/2000/svg" width="512" height="512">
<path d="M0 0 C125.4 0 250.8 0 380 0 C380 10.89 380 21.78 380 33 C390.89 33 401.78 33 413 33 C413 43.89 413 54.78 413 66 C423.89 66 434.78 66 446 66 C446 191.4 446 316.8 446 446 C435.11 446 424.22 446 413 446 C413 456.89 413 467.78 413 479 C402.11 479 391.22 479 380 479 C380 489.89 380 500.78 380 512 C254.6 512 129.2 512 0 512 C0 501.11 0 490.22 0 479 C-10.89 479 -21.78 479 -33 479 C-33 468.11 -33 457.22 -33 446 C-43.89 446 -54.78 446 -66 446 C-66 320.6 -66 195.2 -66 66 C-55.11 66 -44.22 66 -33 66 C-33 55.11 -33 44.22 -33 33 C-22.11 33 -11.22 33 0 33 C0 22.11 0 11.22 0 0 Z " fill="#004FAC" transform="translate(66,0)"/>
<path d="M0 0 C62.37 0 124.74 0 189 0 C189 29.04 189 58.08 189 88 C211.11 88 233.22 88 256 88 C256 99.22 256 110.44 256 122 C233.89 122 211.78 122 189 122 C189 188 189 254 189 322 C211.11 322 233.22 322 256 322 C256 333.22 256 344.44 256 356 C233.89 356 211.78 356 189 356 C189 385.04 189 414.08 189 444 C126.63 444 64.26 444 0 444 C0 433.11 0 422.22 0 411 C-10.89 411 -21.78 411 -33 411 C-33 286.26 -33 161.52 -33 33 C-22.11 33 -11.22 33 0 33 C0 22.11 0 11.22 0 0 Z " fill="#2488FF" transform="translate(67,34)"/>
<path d="M0 0 C125.4 0 250.8 0 380 0 C380 10.89 380 21.78 380 33 C390.89 33 401.78 33 413 33 C413 43.89 413 54.78 413 66 C423.89 66 434.78 66 446 66 C446 191.4 446 316.8 446 446 C435.11 446 424.22 446 413 446 C413 456.89 413 467.78 413 479 C402.11 479 391.22 479 380 479 C380 489.89 380 500.78 380 512 C254.6 512 129.2 512 0 512 C0 501.11 0 490.22 0 479 C-10.89 479 -21.78 479 -33 479 C-33 468.11 -33 457.22 -33 446 C-43.89 446 -54.78 446 -66 446 C-66 320.6 -66 195.2 -66 66 C-55.11 66 -44.22 66 -33 66 C-33 55.11 -33 44.22 -33 33 C-22.11 33 -11.22 33 0 33 C0 22.11 0 11.22 0 0 Z M1 34 C1 44.89 1 55.78 1 67 C-9.89 67 -20.78 67 -32 67 C-32 191.74 -32 316.48 -32 445 C-21.11 445 -10.22 445 1 445 C1 455.89 1 466.78 1 478 C125.74 478 250.48 478 379 478 C379 467.11 379 456.22 379 445 C389.89 445 400.78 445 412 445 C412 320.26 412 195.52 412 67 C401.11 67 390.22 67 379 67 C379 56.11 379 45.22 379 34 C254.26 34 129.52 34 1 34 Z " fill="#000000" transform="translate(66,0)"/>
<path d="M0 0 C22.11 0 44.22 0 67 0 C67 10.89 67 21.78 67 33 C77.89 33 88.78 33 100 33 C100 77.22 100 121.44 100 167 C89.11 167 78.22 167 67 167 C67 177.89 67 188.78 67 200 C44.89 200 22.78 200 0 200 C0 134 0 68 0 0 Z " fill="#004FAC" transform="translate(256,156)"/>
<path d="M0 0 C22.11 0 44.22 0 67 0 C67 66 67 132 67 200 C44.89 200 22.78 200 0 200 C0 189.11 0 178.22 0 167 C-10.89 167 -21.78 167 -33 167 C-33 122.78 -33 78.56 -33 33 C-22.11 33 -11.22 33 0 33 C0 22.11 0 11.22 0 0 Z " fill="#2488FF" transform="translate(189,156)"/>
<path d="M0 0 C10.89 0 21.78 0 33 0 C33 124.74 33 249.48 33 378 C22.11 378 11.22 378 0 378 C0 253.26 0 128.52 0 0 Z " fill="#000000" transform="translate(0,67)"/>
<path d="M0 0 C0.33 0 0.66 0 1 0 C1 10.89 1 21.78 1 33 C125.74 33 250.48 33 379 33 C379 22.11 379 11.22 379 0 C379.33 0 379.66 0 380 0 C380 10.89 380 21.78 380 33 C390.89 33 401.78 33 413 33 C413 43.89 413 54.78 413 66 C423.89 66 434.78 66 446 66 C446 66.33 446 66.66 446 67 C435.11 67 424.22 67 413 67 C413 191.74 413 316.48 413 445 C423.89 445 434.78 445 446 445 C446 445.33 446 445.66 446 446 C435.11 446 424.22 446 413 446 C413 456.89 413 467.78 413 479 C402.11 479 391.22 479 380 479 C380 489.89 380 500.78 380 512 C379.67 512 379.34 512 379 512 C379 501.11 379 490.22 379 479 C254.26 479 129.52 479 1 479 C1 489.89 1 500.78 1 512 C0.67 512 0.34 512 0 512 C0 501.11 0 490.22 0 479 C-10.89 479 -21.78 479 -33 479 C-33 468.11 -33 457.22 -33 446 C-43.89 446 -54.78 446 -66 446 C-66 445.67 -66 445.34 -66 445 C-55.11 445 -44.22 445 -33 445 C-33 320.26 -33 195.52 -33 67 C-43.89 67 -54.78 67 -66 67 C-66 66.67 -66 66.34 -66 66 C-55.11 66 -44.22 66 -33 66 C-33 55.11 -33 44.22 -33 33 C-22.11 33 -11.22 33 0 33 C0 22.11 0 11.22 0 0 Z M1 34 C1 44.89 1 55.78 1 67 C-9.89 67 -20.78 67 -32 67 C-32 191.74 -32 316.48 -32 445 C-21.11 445 -10.22 445 1 445 C1 455.89 1 466.78 1 478 C125.74 478 250.48 478 379 478 C379 467.11 379 456.22 379 445 C389.89 445 400.78 445 412 445 C412 320.26 412 195.52 412 67 C401.11 67 390.22 67 379 67 C379 56.11 379 45.22 379 34 C254.26 34 129.52 34 1 34 Z " fill="#07366D" transform="translate(66,0)"/>
<path d="M0 0 C44.22 0 88.44 0 134 0 C134 11.22 134 22.44 134 34 C89.78 34 45.56 34 0 34 C0 22.78 0 11.56 0 0 Z " fill="#F9FBFE" transform="translate(189,356)"/>
<path d="M0 0 C11.22 0 22.44 0 34 0 C34 44.22 34 88.44 34 134 C22.78 134 11.56 134 0 134 C0 89.78 0 45.56 0 0 Z " fill="#F9FBFD" transform="translate(356,189)"/>
<path d="M0 0 C11.22 0 22.44 0 34 0 C34 44.22 34 88.44 34 134 C22.78 134 11.56 134 0 134 C0 89.78 0 45.56 0 0 Z " fill="#FAFCFF" transform="translate(122,189)"/>
<path d="M0 0 C44.22 0 88.44 0 134 0 C134 11.22 134 22.44 134 34 C89.78 34 45.56 34 0 34 C0 22.78 0 11.56 0 0 Z " fill="#F9FBFE" transform="translate(189,122)"/>
<path d="M0 0 C14.85 0 29.7 0 45 0 C45 14.85 45 29.7 45 45 C30.15 45 15.3 45 0 45 C0 30.15 0 15.3 0 0 Z " fill="#F9FBFD" transform="translate(378,89)"/>
<path d="M0 0 C10.89 0 21.78 0 33 0 C33 10.89 33 21.78 33 33 C22.11 33 11.22 33 0 33 C0 22.11 0 11.22 0 0 Z " fill="#000102" transform="translate(445,445)"/>
<path d="M0 0 C10.89 0 21.78 0 33 0 C33 10.89 33 21.78 33 33 C22.11 33 11.22 33 0 33 C0 22.11 0 11.22 0 0 Z " fill="#FFFFFF" transform="translate(323,323)"/>
<path d="M0 0 C10.89 0 21.78 0 33 0 C33 10.89 33 21.78 33 33 C22.11 33 11.22 33 0 33 C0 22.11 0 11.22 0 0 Z " fill="#FFFFFF" transform="translate(156,323)"/>
<path d="M0 0 C10.89 0 21.78 0 33 0 C33 10.89 33 21.78 33 33 C22.11 33 11.22 33 0 33 C0 22.11 0 11.22 0 0 Z " fill="#FFFFFF" transform="translate(323,156)"/>
<path d="M0 0 C10.89 0 21.78 0 33 0 C33 10.89 33 21.78 33 33 C22.11 33 11.22 33 0 33 C0 22.11 0 11.22 0 0 Z " fill="#FFFFFF" transform="translate(156,156)"/>
<path d="M0 0 C10.89 0 21.78 0 33 0 C33 10.89 33 21.78 33 33 C22.11 33 11.22 33 0 33 C0 22.11 0 11.22 0 0 Z " fill="#FDFEFF" transform="translate(34,67)"/>
<path d="M0 0 C10.89 0 21.78 0 33 0 C33 10.89 33 21.78 33 33 C22.11 33 11.22 33 0 33 C0 22.11 0 11.22 0 0 Z " fill="#000102" transform="translate(445,34)"/>
<path d="M0 0 C10.89 0 21.78 0 33 0 C33 10.89 33 21.78 33 33 C22.11 33 11.22 33 0 33 C0 22.11 0 11.22 0 0 Z " fill="#FDFEFF" transform="translate(67,34)"/>
<path d="M0 0 C10.56 0 21.12 0 32 0 C32 10.56 32 21.12 32 32 C21.44 32 10.88 32 0 32 C0 21.44 0 10.88 0 0 Z " fill="#000000" transform="translate(34,446)"/>
<path d="M0 0 C10.56 0 21.12 0 32 0 C32 10.56 32 21.12 32 32 C21.44 32 10.88 32 0 32 C0 21.44 0 10.88 0 0 Z " fill="#000000" transform="translate(34,34)"/>
<path d="M0 0 C0.33 0 0.66 0 1 0 C1 10.89 1 21.78 1 33 C11.89 33 22.78 33 34 33 C34 33.33 34 33.66 34 34 C23.11 34 12.22 34 1 34 C1 44.89 1 55.78 1 67 C-9.89 67 -20.78 67 -32 67 C-32 191.74 -32 316.48 -32 445 C-32.33 445 -32.66 445 -33 445 C-33 320.26 -33 195.52 -33 67 C-43.89 67 -54.78 67 -66 67 C-66 66.67 -66 66.34 -66 66 C-55.11 66 -44.22 66 -33 66 C-33 55.11 -33 44.22 -33 33 C-22.11 33 -11.22 33 0 33 C0 22.11 0 11.22 0 0 Z M-32 34 C-32 44.56 -32 55.12 -32 66 C-21.44 66 -10.88 66 0 66 C0 55.44 0 44.88 0 34 C-10.56 34 -21.12 34 -32 34 Z " fill="#155197" transform="translate(66,0)"/>
<path d="M0 0 C0.33 0 0.66 0 1 0 C1 10.89 1 21.78 1 33 C11.89 33 22.78 33 34 33 C34 33.33 34 33.66 34 34 C23.11 34 12.22 34 1 34 C1 44.89 1 55.78 1 67 C-9.89 67 -20.78 67 -32 67 C-32 77.89 -32 88.78 -32 100 C-32.33 100 -32.66 100 -33 100 C-33 89.11 -33 78.22 -33 67 C-43.89 67 -54.78 67 -66 67 C-66 66.67 -66 66.34 -66 66 C-55.11 66 -44.22 66 -33 66 C-33 55.11 -33 44.22 -33 33 C-22.11 33 -11.22 33 0 33 C0 22.11 0 11.22 0 0 Z M-32 34 C-32 44.56 -32 55.12 -32 66 C-21.44 66 -10.88 66 0 66 C0 55.44 0 44.88 0 34 C-10.56 34 -21.12 34 -32 34 Z " fill="#5C6570" transform="translate(66,0)"/>
</svg>
