<svg xmlns="http://www.w3.org/2000/svg" xmlns:xlink="http://www.w3.org/1999/xlink" width="500" zoomAndPan="magnify" viewBox="0 0 375 374.999991" height="500" preserveAspectRatio="xMidYMid meet" version="1.0"><defs><clipPath id="8dc1429020"><path d="M 27 147 L 338 147 L 338 331.96875 L 27 331.96875 Z M 27 147 " clip-rule="nonzero"/></clipPath><clipPath id="f1c5b0b9cf"><path d="M 277 43.21875 L 286 43.21875 L 286 52 L 277 52 Z M 277 43.21875 " clip-rule="nonzero"/></clipPath></defs><path fill="#6b99d2" d="M 176.90625 167.496094 L 177.714844 167.496094 C 176.757812 164.375 176.289062 161.1875 176.316406 157.921875 C 176.316406 156.382812 176.425781 154.847656 176.640625 153.324219 C 176.855469 151.796875 177.179688 150.296875 177.609375 148.816406 C 178.039062 147.335938 178.570312 145.894531 179.203125 144.488281 C 179.839844 143.085938 180.566406 141.730469 181.394531 140.429688 C 182.21875 139.128906 183.132812 137.894531 184.132812 136.722656 C 185.132812 135.550781 186.210938 134.453125 187.367188 133.4375 C 188.523438 132.417969 189.742188 131.484375 191.03125 130.640625 C 192.320312 129.796875 193.660156 129.042969 195.054688 128.390625 C 196.449219 127.734375 197.878906 127.179688 199.351562 126.730469 C 200.824219 126.277344 202.320312 125.929688 203.84375 125.691406 C 205.363281 125.453125 206.894531 125.320312 208.433594 125.300781 C 209.976562 125.277344 211.507812 125.363281 213.035156 125.558594 C 214.5625 125.753906 216.070312 126.054688 217.554688 126.464844 C 219.039062 126.871094 220.488281 127.382812 221.902344 127.996094 C 223.3125 128.613281 224.675781 129.324219 225.988281 130.128906 C 227.300781 130.9375 228.546875 131.832031 229.730469 132.816406 C 230.003906 131.554688 230.335938 130.308594 230.722656 129.074219 C 231.109375 127.84375 231.554688 126.632812 232.050781 125.4375 C 232.550781 124.246094 233.101562 123.082031 233.707031 121.941406 C 234.3125 120.800781 234.96875 119.6875 235.679688 118.605469 C 236.386719 117.527344 237.140625 116.480469 237.945312 115.46875 C 238.746094 114.457031 239.59375 113.484375 240.488281 112.550781 C 241.378906 111.617188 242.3125 110.726562 243.285156 109.878906 C 244.261719 109.03125 245.273438 108.230469 246.320312 107.472656 C 247.367188 106.71875 248.445312 106.011719 249.558594 105.355469 C 250.671875 104.699219 251.8125 104.097656 252.976562 103.542969 C 254.144531 102.992188 255.335938 102.496094 256.550781 102.054688 C 257.761719 101.609375 258.992188 101.226562 260.242188 100.894531 C 261.488281 100.566406 262.75 100.296875 264.023438 100.082031 C 265.296875 99.867188 266.578125 99.710938 267.867188 99.617188 C 269.152344 99.519531 270.441406 99.484375 271.734375 99.503906 C 273.023438 99.527344 274.3125 99.609375 275.59375 99.75 C 276.878906 99.890625 278.152344 100.089844 279.417969 100.347656 C 280.683594 100.601562 281.933594 100.917969 283.171875 101.289062 C 284.40625 101.660156 285.625 102.089844 286.820312 102.574219 C 288.019531 103.058594 289.191406 103.59375 290.339844 104.1875 C 291.488281 104.777344 292.605469 105.421875 293.695312 106.113281 C 294.785156 106.808594 295.839844 107.550781 296.859375 108.339844 C 297.878906 109.132812 298.863281 109.96875 299.808594 110.847656 C 300.75 111.730469 301.652344 112.652344 302.511719 113.617188 C 303.375 114.582031 304.1875 115.582031 304.957031 116.621094 C 305.722656 117.660156 306.441406 118.730469 307.113281 119.835938 C 307.78125 120.9375 308.398438 122.070312 308.964844 123.234375 C 309.53125 124.394531 310.042969 125.578125 310.5 126.785156 C 310.957031 127.996094 311.359375 129.222656 311.703125 130.464844 C 312.050781 131.710938 312.335938 132.96875 312.566406 134.242188 C 312.796875 135.511719 312.96875 136.792969 313.082031 138.078125 C 313.191406 139.367188 313.246094 140.65625 313.242188 141.949219 C 313.234375 144.648438 312.964844 147.324219 312.429688 149.972656 C 314.164062 149.738281 315.90625 149.613281 317.65625 149.605469 C 318.621094 149.601562 319.585938 149.640625 320.550781 149.714844 C 321.515625 149.792969 322.472656 149.910156 323.425781 150.066406 C 324.382812 150.222656 325.328125 150.417969 326.265625 150.652344 C 327.203125 150.886719 328.128906 151.160156 329.046875 151.472656 C 329.960938 151.785156 330.863281 152.132812 331.75 152.515625 C 332.636719 152.902344 333.503906 153.324219 334.355469 153.78125 C 335.207031 154.238281 336.039062 154.730469 336.851562 155.253906 C 337.664062 155.78125 338.453125 156.339844 339.21875 156.929688 C 339.984375 157.519531 340.722656 158.140625 341.4375 158.792969 C 342.152344 159.445312 342.839844 160.125 343.496094 160.835938 C 344.15625 161.542969 344.78125 162.277344 345.378906 163.039062 C 345.976562 163.796875 346.542969 164.582031 347.078125 165.390625 C 347.609375 166.195312 348.109375 167.023438 348.574219 167.871094 C 349.039062 168.71875 349.46875 169.585938 349.863281 170.46875 C 350.253906 171.355469 350.613281 172.253906 350.929688 173.164062 C 351.25 174.078125 351.53125 175.003906 351.777344 175.9375 C 352.019531 176.875 352.222656 177.820312 352.390625 178.773438 C 352.554688 179.726562 352.679688 180.683594 352.765625 181.648438 C 352.851562 182.613281 352.898438 183.578125 352.90625 184.542969 C 352.914062 185.511719 352.878906 186.476562 352.808594 187.441406 C 352.734375 188.40625 352.625 189.367188 352.472656 190.324219 C 352.320312 191.277344 352.128906 192.226562 351.898438 193.164062 C 351.667969 194.105469 351.402344 195.035156 351.09375 195.953125 C 350.789062 196.867188 350.445312 197.773438 350.0625 198.660156 C 349.683594 199.550781 349.265625 200.421875 348.8125 201.277344 C 348.359375 202.132812 347.871094 202.96875 347.351562 203.78125 C 346.828125 204.597656 346.273438 205.386719 345.6875 206.15625 C 345.101562 206.925781 344.484375 207.667969 343.835938 208.386719 C 343.1875 209.105469 342.511719 209.792969 341.804688 210.457031 C 341.101562 211.117188 340.371094 211.75 339.613281 212.351562 C 338.855469 212.953125 338.074219 213.523438 337.273438 214.0625 C 336.46875 214.597656 335.644531 215.101562 334.796875 215.570312 C 332.644531 217.023438 330.328125 218.136719 327.847656 218.898438 C 325.367188 219.664062 322.828125 220.050781 320.230469 220.0625 L 176.90625 220.0625 C 176.046875 220.058594 175.191406 220.011719 174.335938 219.921875 C 173.484375 219.832031 172.636719 219.703125 171.796875 219.53125 C 170.957031 219.359375 170.125 219.148438 169.304688 218.894531 C 168.484375 218.644531 167.679688 218.351562 166.886719 218.019531 C 166.097656 217.6875 165.320312 217.320312 164.566406 216.914062 C 163.8125 216.503906 163.078125 216.0625 162.363281 215.585938 C 161.652344 215.105469 160.964844 214.59375 160.304688 214.046875 C 159.640625 213.5 159.007812 212.925781 158.402344 212.316406 C 157.796875 211.707031 157.21875 211.070312 156.675781 210.40625 C 156.132812 209.742188 155.621094 209.054688 155.144531 208.339844 C 154.667969 207.625 154.230469 206.890625 153.824219 206.132812 C 153.417969 205.375 153.054688 204.601562 152.722656 203.808594 C 152.394531 203.015625 152.105469 202.207031 151.855469 201.386719 C 151.605469 200.566406 151.394531 199.734375 151.226562 198.890625 C 151.058594 198.050781 150.929688 197.203125 150.84375 196.347656 C 150.757812 195.492188 150.714844 194.636719 150.710938 193.777344 C 150.714844 192.917969 150.757812 192.0625 150.84375 191.207031 C 150.929688 190.355469 151.058594 189.507812 151.226562 188.664062 C 151.394531 187.824219 151.605469 186.992188 151.855469 186.167969 C 152.105469 185.347656 152.394531 184.542969 152.722656 183.75 C 153.054688 182.957031 153.417969 182.179688 153.824219 181.421875 C 154.230469 180.664062 154.667969 179.929688 155.144531 179.214844 C 155.621094 178.5 156.132812 177.8125 156.675781 177.148438 C 157.21875 176.484375 157.796875 175.847656 158.402344 175.238281 C 159.007812 174.632812 159.640625 174.054688 160.304688 173.507812 C 160.964844 172.964844 161.652344 172.449219 162.363281 171.972656 C 163.078125 171.492188 163.8125 171.050781 164.566406 170.644531 C 165.320312 170.238281 166.097656 169.867188 166.886719 169.535156 C 167.679688 169.203125 168.484375 168.914062 169.304688 168.660156 C 170.125 168.40625 170.957031 168.195312 171.796875 168.023438 C 172.636719 167.851562 173.484375 167.722656 174.335938 167.632812 C 175.191406 167.546875 176.046875 167.5 176.90625 167.496094 Z M 176.90625 167.496094 " fill-opacity="1" fill-rule="nonzero"/><g clip-path="url(#8dc1429020)"><path fill="#26477a" d="M 296.90625 251.425781 L 295.730469 251.425781 C 297.191406 246.625 297.925781 241.71875 297.9375 236.699219 C 297.9375 234.332031 297.773438 231.980469 297.4375 229.636719 C 297.105469 227.292969 296.609375 224.984375 295.949219 222.710938 C 295.292969 220.4375 294.472656 218.222656 293.5 216.066406 C 292.527344 213.910156 291.40625 211.832031 290.136719 209.835938 C 288.871094 207.835938 287.46875 205.9375 285.929688 204.140625 C 284.394531 202.339844 282.738281 200.660156 280.960938 199.09375 C 279.1875 197.53125 277.308594 196.101562 275.332031 194.804688 C 273.351562 193.507812 271.292969 192.355469 269.152344 191.351562 C 267.011719 190.34375 264.808594 189.496094 262.546875 188.804688 C 260.285156 188.109375 257.984375 187.582031 255.648438 187.214844 C 253.3125 186.847656 250.960938 186.648438 248.597656 186.617188 C 246.230469 186.582031 243.875 186.71875 241.53125 187.019531 C 239.183594 187.320312 236.871094 187.785156 234.589844 188.417969 C 232.3125 189.046875 230.085938 189.835938 227.917969 190.78125 C 225.75 191.726562 223.660156 192.820312 221.648438 194.0625 C 219.632812 195.304688 217.71875 196.679688 215.898438 198.195312 C 215.480469 196.261719 214.972656 194.347656 214.378906 192.460938 C 213.785156 190.570312 213.105469 188.714844 212.339844 186.886719 C 211.574219 185.0625 210.726562 183.273438 209.800781 181.523438 C 208.871094 179.777344 207.863281 178.074219 206.78125 176.417969 C 205.695312 174.761719 204.539062 173.160156 203.304688 171.609375 C 202.074219 170.058594 200.773438 168.570312 199.40625 167.136719 C 198.039062 165.707031 196.609375 164.34375 195.117188 163.042969 C 193.621094 161.742188 192.074219 160.515625 190.46875 159.355469 C 188.863281 158.199219 187.207031 157.117188 185.5 156.113281 C 183.796875 155.109375 182.050781 154.183594 180.261719 153.335938 C 178.472656 152.492188 176.644531 151.730469 174.785156 151.050781 C 172.929688 150.375 171.042969 149.785156 169.128906 149.277344 C 167.214844 148.773438 165.28125 148.359375 163.332031 148.03125 C 161.378906 147.703125 159.417969 147.464844 157.441406 147.320312 C 155.46875 147.171875 153.492188 147.113281 151.515625 147.148438 C 149.535156 147.183594 147.5625 147.308594 145.597656 147.523438 C 143.628906 147.738281 141.675781 148.042969 139.738281 148.433594 C 137.796875 148.828125 135.878906 149.3125 133.984375 149.882812 C 132.089844 150.453125 130.226562 151.105469 128.390625 151.847656 C 126.554688 152.589844 124.757812 153.414062 123 154.320312 C 121.238281 155.226562 119.523438 156.210938 117.855469 157.273438 C 116.1875 158.335938 114.570312 159.472656 113.003906 160.6875 C 111.4375 161.898438 109.933594 163.179688 108.484375 164.527344 C 107.035156 165.878906 105.652344 167.292969 104.335938 168.769531 C 103.019531 170.246094 101.769531 171.78125 100.59375 173.371094 C 99.414062 174.960938 98.3125 176.605469 97.285156 178.296875 C 96.257812 179.988281 95.308594 181.726562 94.441406 183.503906 C 93.574219 185.285156 92.789062 187.097656 92.085938 188.949219 C 91.386719 190.800781 90.769531 192.679688 90.238281 194.589844 C 89.710938 196.496094 89.269531 198.425781 88.917969 200.375 C 88.5625 202.320312 88.300781 204.28125 88.128906 206.253906 C 87.953125 208.226562 87.871094 210.203125 87.878906 212.183594 C 87.894531 216.34375 88.289062 220.464844 89.054688 224.550781 C 86.398438 224.167969 83.722656 223.972656 81.035156 223.964844 C 79.554688 223.964844 78.078125 224.027344 76.601562 224.148438 C 75.125 224.273438 73.65625 224.457031 72.195312 224.699219 C 70.734375 224.945312 69.285156 225.246094 67.847656 225.609375 C 66.410156 225.972656 64.992188 226.394531 63.589844 226.875 C 62.1875 227.355469 60.808594 227.894531 59.453125 228.488281 C 58.09375 229.082031 56.765625 229.730469 55.460938 230.433594 C 54.15625 231.136719 52.882812 231.890625 51.640625 232.699219 C 50.398438 233.507812 49.191406 234.363281 48.019531 235.273438 C 46.851562 236.179688 45.71875 237.132812 44.625 238.132812 C 43.53125 239.136719 42.480469 240.179688 41.472656 241.265625 C 40.46875 242.351562 39.507812 243.480469 38.59375 244.644531 C 37.679688 245.8125 36.8125 247.015625 35.996094 248.25 C 35.183594 249.488281 34.417969 250.757812 33.707031 252.058594 C 32.996094 253.359375 32.339844 254.6875 31.738281 256.039062 C 31.136719 257.394531 30.589844 258.773438 30.101562 260.171875 C 29.613281 261.570312 29.179688 262.988281 28.808594 264.421875 C 28.4375 265.859375 28.125 267.304688 27.871094 268.765625 C 27.617188 270.226562 27.425781 271.695312 27.292969 273.171875 C 27.160156 274.648438 27.089844 276.125 27.078125 277.609375 C 27.066406 279.089844 27.117188 280.570312 27.226562 282.050781 C 27.339844 283.527344 27.511719 285 27.742188 286.464844 C 27.972656 287.925781 28.265625 289.378906 28.617188 290.820312 C 28.96875 292.261719 29.378906 293.683594 29.847656 295.089844 C 30.316406 296.496094 30.839844 297.878906 31.421875 299.242188 C 32.003906 300.605469 32.640625 301.941406 33.335938 303.253906 C 34.027344 304.5625 34.769531 305.84375 35.570312 307.09375 C 36.367188 308.34375 37.214844 309.558594 38.109375 310.738281 C 39.007812 311.917969 39.953125 313.058594 40.945312 314.160156 C 41.933594 315.261719 42.96875 316.320312 44.046875 317.335938 C 45.125 318.351562 46.246094 319.324219 47.402344 320.246094 C 48.558594 321.171875 49.753906 322.046875 50.984375 322.871094 C 52.214844 323.699219 53.476562 324.472656 54.769531 325.195312 C 58.066406 327.40625 61.617188 329.085938 65.414062 330.242188 C 69.210938 331.394531 73.09375 331.972656 77.0625 331.96875 L 296.90625 331.96875 C 298.222656 331.964844 299.539062 331.898438 300.847656 331.769531 C 302.160156 331.636719 303.460938 331.441406 304.753906 331.183594 C 306.042969 330.921875 307.320312 330.601562 308.582031 330.21875 C 309.839844 329.835938 311.078125 329.390625 312.296875 328.882812 C 313.511719 328.378906 314.703125 327.8125 315.863281 327.191406 C 317.023438 326.570312 318.152344 325.890625 319.25 325.160156 C 320.34375 324.425781 321.398438 323.640625 322.417969 322.804688 C 323.4375 321.96875 324.410156 321.085938 325.34375 320.152344 C 326.273438 319.21875 327.160156 318.246094 327.996094 317.226562 C 328.832031 316.207031 329.613281 315.148438 330.347656 314.054688 C 331.078125 312.957031 331.757812 311.828125 332.378906 310.667969 C 333 309.503906 333.5625 308.3125 334.070312 307.097656 C 334.574219 305.878906 335.019531 304.640625 335.402344 303.378906 C 335.785156 302.117188 336.109375 300.839844 336.367188 299.546875 C 336.625 298.253906 336.820312 296.953125 336.953125 295.640625 C 337.082031 294.332031 337.148438 293.015625 337.152344 291.695312 C 337.148438 290.378906 337.078125 289.066406 336.945312 287.753906 C 336.8125 286.441406 336.613281 285.140625 336.355469 283.851562 C 336.09375 282.558594 335.773438 281.28125 335.386719 280.023438 C 335 278.761719 334.554688 277.523438 334.050781 276.308594 C 333.542969 275.09375 332.980469 273.902344 332.355469 272.742188 C 331.734375 271.582031 331.058594 270.453125 330.324219 269.359375 C 329.59375 268.261719 328.808594 267.207031 327.972656 266.1875 C 327.136719 265.167969 326.253906 264.195312 325.320312 263.261719 C 324.390625 262.332031 323.417969 261.449219 322.398438 260.609375 C 321.382812 259.773438 320.324219 258.988281 319.230469 258.257812 C 318.136719 257.523438 317.007812 256.847656 315.847656 256.222656 C 314.6875 255.601562 313.5 255.035156 312.285156 254.53125 C 311.070312 254.023438 309.832031 253.578125 308.574219 253.191406 C 307.3125 252.804688 306.039062 252.484375 304.746094 252.222656 C 303.457031 251.960938 302.15625 251.765625 300.847656 251.632812 C 299.535156 251.5 298.222656 251.429688 296.90625 251.425781 Z M 296.90625 251.425781 " fill-opacity="1" fill-rule="nonzero"/></g><path fill="#26477a" d="M 188.898438 81.132812 C 188.898438 81.652344 188.800781 82.148438 188.601562 82.628906 C 188.402344 83.105469 188.121094 83.527344 187.753906 83.894531 C 187.390625 84.257812 186.96875 84.542969 186.492188 84.738281 C 186.011719 84.9375 185.515625 85.035156 185 85.035156 C 184.480469 85.035156 183.984375 84.9375 183.507812 84.738281 C 183.027344 84.542969 182.605469 84.257812 182.242188 83.894531 C 181.875 83.527344 181.59375 83.105469 181.394531 82.628906 C 181.199219 82.148438 181.097656 81.652344 181.097656 81.132812 C 181.097656 80.617188 181.199219 80.121094 181.394531 79.640625 C 181.59375 79.164062 181.875 78.742188 182.242188 78.375 C 182.605469 78.007812 183.027344 77.726562 183.507812 77.53125 C 183.984375 77.332031 184.480469 77.234375 185 77.234375 C 185.515625 77.234375 186.011719 77.332031 186.492188 77.53125 C 186.96875 77.726562 187.390625 78.007812 187.753906 78.375 C 188.121094 78.742188 188.402344 79.164062 188.601562 79.640625 C 188.800781 80.121094 188.898438 80.617188 188.898438 81.132812 Z M 188.898438 81.132812 " fill-opacity="1" fill-rule="nonzero"/><g clip-path="url(#f1c5b0b9cf)"><path fill="#26477a" d="M 285.355469 47.121094 C 285.355469 47.636719 285.257812 48.136719 285.058594 48.613281 C 284.859375 49.09375 284.578125 49.515625 284.214844 49.878906 C 283.847656 50.246094 283.425781 50.527344 282.949219 50.726562 C 282.46875 50.921875 281.972656 51.023438 281.457031 51.023438 C 280.9375 51.023438 280.441406 50.921875 279.964844 50.726562 C 279.484375 50.527344 279.0625 50.246094 278.699219 49.878906 C 278.332031 49.515625 278.050781 49.09375 277.851562 48.613281 C 277.65625 48.136719 277.554688 47.636719 277.554688 47.121094 C 277.554688 46.601562 277.65625 46.105469 277.851562 45.628906 C 278.050781 45.148438 278.332031 44.726562 278.699219 44.363281 C 279.0625 43.996094 279.484375 43.714844 279.964844 43.515625 C 280.441406 43.316406 280.9375 43.21875 281.457031 43.21875 C 281.972656 43.21875 282.46875 43.316406 282.949219 43.515625 C 283.425781 43.714844 283.847656 43.996094 284.214844 44.363281 C 284.578125 44.726562 284.859375 45.148438 285.058594 45.628906 C 285.257812 46.105469 285.355469 46.601562 285.355469 47.121094 Z M 285.355469 47.121094 " fill-opacity="1" fill-rule="nonzero"/></g><path fill="#26477a" d="M 87.804688 58.53125 C 87.804688 59.050781 87.707031 59.546875 87.507812 60.027344 C 87.3125 60.503906 87.027344 60.925781 86.664062 61.292969 C 86.296875 61.65625 85.875 61.9375 85.398438 62.136719 C 84.921875 62.335938 84.421875 62.433594 83.90625 62.433594 C 83.390625 62.433594 82.890625 62.335938 82.414062 62.136719 C 81.9375 61.9375 81.515625 61.65625 81.148438 61.292969 C 80.78125 60.925781 80.5 60.503906 80.304688 60.027344 C 80.105469 59.546875 80.007812 59.050781 80.007812 58.53125 C 80.007812 58.015625 80.105469 57.515625 80.304688 57.039062 C 80.5 56.5625 80.78125 56.140625 81.148438 55.773438 C 81.515625 55.40625 81.9375 55.125 82.414062 54.925781 C 82.890625 54.730469 83.390625 54.628906 83.90625 54.628906 C 84.421875 54.628906 84.921875 54.730469 85.398438 54.925781 C 85.875 55.125 86.296875 55.40625 86.664062 55.773438 C 87.027344 56.140625 87.3125 56.5625 87.507812 57.039062 C 87.707031 57.515625 87.804688 58.015625 87.804688 58.53125 Z M 87.804688 58.53125 " fill-opacity="1" fill-rule="nonzero"/><path fill="#26477a" d="M 337.152344 121.773438 C 337.152344 122.292969 337.054688 122.789062 336.855469 123.269531 C 336.65625 123.746094 336.375 124.167969 336.011719 124.535156 C 335.644531 124.898438 335.222656 125.179688 334.746094 125.378906 C 334.265625 125.578125 333.769531 125.675781 333.253906 125.675781 C 332.734375 125.675781 332.238281 125.578125 331.761719 125.378906 C 331.28125 125.179688 330.859375 124.898438 330.496094 124.535156 C 330.128906 124.167969 329.847656 123.746094 329.648438 123.269531 C 329.453125 122.789062 329.351562 122.292969 329.351562 121.773438 C 329.351562 121.257812 329.453125 120.757812 329.648438 120.28125 C 329.847656 119.804688 330.128906 119.382812 330.496094 119.015625 C 330.859375 118.648438 331.28125 118.367188 331.761719 118.167969 C 332.238281 117.972656 332.734375 117.871094 333.253906 117.871094 C 333.769531 117.871094 334.265625 117.972656 334.746094 118.167969 C 335.222656 118.367188 335.644531 118.648438 336.011719 119.015625 C 336.375 119.382812 336.65625 119.804688 336.855469 120.28125 C 337.054688 120.757812 337.152344 121.257812 337.152344 121.773438 Z M 337.152344 121.773438 " fill-opacity="1" fill-rule="nonzero"/><path fill="#26477a" d="M 26.957031 172.574219 C 26.957031 173.09375 26.859375 173.589844 26.660156 174.066406 C 26.464844 174.546875 26.183594 174.96875 25.816406 175.332031 C 25.449219 175.699219 25.027344 175.980469 24.550781 176.179688 C 24.074219 176.378906 23.578125 176.476562 23.058594 176.476562 C 22.542969 176.476562 22.042969 176.378906 21.566406 176.179688 C 21.089844 175.980469 20.667969 175.699219 20.300781 175.332031 C 19.9375 174.96875 19.65625 174.546875 19.457031 174.066406 C 19.257812 173.589844 19.160156 173.09375 19.160156 172.574219 C 19.160156 172.058594 19.257812 171.558594 19.457031 171.082031 C 19.65625 170.601562 19.9375 170.179688 20.300781 169.816406 C 20.667969 169.449219 21.089844 169.167969 21.566406 168.96875 C 22.042969 168.773438 22.542969 168.671875 23.058594 168.671875 C 23.578125 168.671875 24.074219 168.773438 24.550781 168.96875 C 25.027344 169.167969 25.449219 169.449219 25.816406 169.816406 C 26.183594 170.179688 26.464844 170.601562 26.660156 171.082031 C 26.859375 171.558594 26.957031 172.058594 26.957031 172.574219 Z M 26.957031 172.574219 " fill-opacity="1" fill-rule="nonzero"/><path fill="#ffb544" d="M 179.699219 222.933594 C 177.925781 224.308594 176.097656 225.605469 174.207031 226.824219 C 172.320312 228.039062 170.386719 229.171875 168.398438 230.21875 C 166.414062 231.265625 164.386719 232.222656 162.316406 233.09375 C 160.246094 233.964844 158.140625 234.742188 156.003906 235.429688 C 153.867188 236.113281 151.703125 236.707031 149.511719 237.203125 C 147.324219 237.699219 145.117188 238.101562 142.894531 238.40625 C 140.667969 238.710938 138.4375 238.917969 136.195312 239.023438 C 133.949219 239.132812 131.707031 239.144531 129.464844 239.058594 C 127.222656 238.972656 124.988281 238.785156 122.757812 238.503906 C 120.53125 238.222656 118.320312 237.84375 116.128906 237.367188 C 113.933594 236.890625 111.765625 236.320312 109.621094 235.65625 C 107.476562 234.992188 105.363281 234.234375 103.285156 233.382812 C 101.207031 232.535156 99.171875 231.59375 97.175781 230.566406 C 95.179688 229.539062 93.230469 228.425781 91.332031 227.230469 C 89.433594 226.03125 87.589844 224.753906 85.800781 223.394531 C 84.015625 222.035156 82.289062 220.601562 80.628906 219.089844 C 78.964844 217.582031 77.371094 216 75.847656 214.351562 C 74.324219 212.703125 72.871094 210.992188 71.496094 209.214844 C 70.121094 207.4375 68.828125 205.605469 67.613281 203.71875 C 66.398438 201.828125 65.269531 199.890625 64.222656 197.902344 C 63.175781 195.914062 62.21875 193.886719 61.351562 191.8125 C 60.480469 189.742188 59.703125 187.636719 59.019531 185.496094 C 58.335938 183.359375 57.746094 181.191406 57.25 179 C 56.753906 176.8125 56.355469 174.601562 56.050781 172.375 C 55.746094 170.152344 55.542969 167.914062 55.433594 165.671875 C 55.324219 163.429688 55.316406 161.183594 55.402344 158.9375 C 55.492188 156.695312 55.675781 154.457031 55.960938 152.230469 C 56.242188 150 56.621094 147.789062 57.097656 145.59375 C 57.574219 143.398438 58.144531 141.226562 58.8125 139.082031 C 59.476562 136.9375 60.234375 134.824219 61.085938 132.746094 C 61.933594 130.667969 62.875 128.628906 63.902344 126.632812 C 64.929688 124.632812 66.042969 122.6875 67.242188 120.785156 C 68.4375 118.886719 69.71875 117.042969 71.074219 115.253906 C 72.433594 113.464844 73.867188 111.742188 75.378906 110.078125 C 76.886719 108.414062 78.46875 106.820312 80.117188 105.296875 C 81.765625 103.773438 83.476562 102.320312 85.25 100.945312 C 87.027344 99.570312 88.859375 98.277344 90.746094 97.0625 C 92.636719 95.847656 94.574219 94.714844 96.558594 93.671875 C 98.546875 92.625 100.574219 91.667969 102.644531 90.800781 C 104.714844 89.929688 106.820312 89.15625 108.957031 88.46875 C 111.097656 87.785156 113.261719 87.195312 115.449219 86.699219 C 117.640625 86.207031 119.847656 85.808594 122.070312 85.503906 C 124.296875 85.203125 126.53125 84.996094 128.773438 84.890625 C 131.015625 84.78125 133.257812 84.773438 135.5 84.863281 C 137.746094 84.953125 139.980469 85.136719 142.207031 85.421875 C 144.433594 85.707031 146.644531 86.085938 148.835938 86.566406 C 151.03125 87.042969 153.199219 87.613281 155.34375 88.28125 C 157.488281 88.949219 159.597656 89.707031 161.675781 90.558594 C 160.558594 90.667969 159.449219 90.800781 158.339844 90.964844 C 157.230469 91.128906 156.128906 91.320312 155.027344 91.542969 C 153.929688 91.761719 152.835938 92.007812 151.75 92.28125 C 150.664062 92.554688 149.585938 92.859375 148.515625 93.1875 C 147.441406 93.515625 146.378906 93.871094 145.328125 94.253906 C 144.273438 94.636719 143.230469 95.042969 142.199219 95.480469 C 141.164062 95.914062 140.144531 96.375 139.132812 96.859375 C 138.125 97.347656 137.128906 97.859375 136.144531 98.394531 C 135.160156 98.929688 134.1875 99.492188 133.234375 100.078125 C 132.277344 100.664062 131.335938 101.269531 130.410156 101.902344 C 129.488281 102.535156 128.578125 103.191406 127.6875 103.871094 C 126.792969 104.546875 125.917969 105.25 125.0625 105.972656 C 124.207031 106.695312 123.367188 107.4375 122.546875 108.203125 C 121.726562 108.964844 120.929688 109.75 120.148438 110.554688 C 119.367188 111.359375 118.609375 112.183594 117.871094 113.027344 C 117.128906 113.871094 116.414062 114.734375 115.71875 115.613281 C 115.023438 116.492188 114.351562 117.386719 113.699219 118.300781 C 113.050781 119.214844 112.421875 120.140625 111.820312 121.085938 C 111.214844 122.03125 110.636719 122.992188 110.082031 123.964844 C 109.523438 124.9375 108.996094 125.925781 108.488281 126.925781 C 107.984375 127.925781 107.503906 128.9375 107.046875 129.964844 C 106.59375 130.988281 106.164062 132.023438 105.761719 133.070312 C 105.359375 134.117188 104.984375 135.171875 104.632812 136.238281 C 104.285156 137.304688 103.960938 138.375 103.664062 139.457031 C 103.371094 140.539062 103.101562 141.628906 102.859375 142.722656 C 102.617188 143.816406 102.40625 144.917969 102.21875 146.023438 C 102.035156 147.128906 101.875 148.238281 101.746094 149.355469 C 101.617188 150.46875 101.515625 151.582031 101.441406 152.703125 C 101.367188 153.820312 101.324219 154.941406 101.304688 156.0625 C 101.289062 157.183594 101.296875 158.304688 101.335938 159.425781 C 101.375 160.546875 101.445312 161.664062 101.539062 162.78125 C 101.632812 163.898438 101.757812 165.011719 101.910156 166.125 C 102.058594 167.234375 102.238281 168.339844 102.445312 169.441406 C 102.652344 170.546875 102.886719 171.640625 103.148438 172.730469 C 103.410156 173.820312 103.699219 174.90625 104.015625 175.980469 C 104.332031 177.054688 104.675781 178.121094 105.046875 179.179688 C 105.417969 180.238281 105.8125 181.289062 106.238281 182.324219 C 106.660156 183.363281 107.109375 184.390625 107.582031 185.40625 C 108.058594 186.421875 108.558594 187.425781 109.082031 188.417969 C 109.605469 189.40625 110.15625 190.382812 110.730469 191.347656 C 111.304688 192.308594 111.902344 193.257812 112.523438 194.191406 C 113.144531 195.125 113.792969 196.039062 114.457031 196.941406 C 115.125 197.839844 115.816406 198.722656 116.527344 199.589844 C 117.242188 200.453125 117.976562 201.300781 118.730469 202.128906 C 119.484375 202.960938 120.257812 203.769531 121.054688 204.558594 C 121.851562 205.347656 122.664062 206.117188 123.5 206.867188 C 124.332031 207.613281 125.1875 208.339844 126.058594 209.046875 C 126.929688 209.753906 127.816406 210.4375 128.722656 211.097656 C 129.625 211.757812 130.546875 212.394531 131.484375 213.011719 C 132.421875 213.625 133.375 214.214844 134.339844 214.78125 C 135.308594 215.347656 136.289062 215.890625 137.28125 216.410156 C 138.277344 216.925781 139.28125 217.417969 140.300781 217.882812 C 141.320312 218.351562 142.351562 218.792969 143.390625 219.207031 C 144.433594 219.621094 145.484375 220.007812 146.542969 220.371094 C 147.605469 220.734375 148.671875 221.066406 149.75 221.375 C 150.828125 221.683594 151.914062 221.964844 153.003906 222.21875 C 154.097656 222.472656 155.195312 222.699219 156.296875 222.894531 C 157.398438 223.09375 158.507812 223.265625 159.617188 223.40625 C 160.730469 223.550781 161.84375 223.664062 162.960938 223.75 C 164.078125 223.835938 165.195312 223.894531 166.316406 223.925781 C 167.4375 223.953125 168.558594 223.957031 169.675781 223.929688 C 170.796875 223.902344 171.917969 223.847656 173.035156 223.765625 C 174.152344 223.683594 175.265625 223.570312 176.378906 223.433594 C 177.488281 223.292969 178.597656 223.128906 179.699219 222.933594 Z M 179.699219 222.933594 " fill-opacity="1" fill-rule="nonzero"/></svg>