<svg width="49" height="48" viewBox="0 0 49 48" fill="none" xmlns="http://www.w3.org/2000/svg">
<g clip-path="url(#clip0_133_168)">
<mask id="mask0_133_168" style="mask-type:luminance" maskUnits="userSpaceOnUse" x="1" y="0" width="48" height="48">
<path d="M1.20129 4.29126L44.5079 0.502426L48.2967 43.809L4.99013 47.5978L1.20129 4.29126Z" fill="white"/>
</mask>
<g mask="url(#mask0_133_168)">
<path d="M41.604 12.6579L29.7934 13.6912L29.449 9.75406L25.5118 10.0985L24.8229 2.22463L20.8862 2.56905L21.5751 10.4429L17.6379 10.7874L17.9824 14.7246L2.23463 16.1023L2.57904 20.039L6.51621 19.6946L6.86067 23.6317L10.7974 23.2873L11.1418 27.224L15.079 26.8796L15.4234 30.8167L11.4863 31.1612L12.1751 39.0351L8.23842 39.3795L8.9273 47.2534L16.8012 46.5645L16.4567 42.6273L24.3306 41.9385L23.9862 38.0017L27.9229 37.6573L28.2673 41.594L36.1412 40.9052L36.4857 44.8423L44.3595 44.1535L43.6707 36.2796L39.7339 36.624L39.0451 28.7501L35.1079 29.0946L34.7634 25.1574L38.7006 24.8129L38.3562 20.8762L42.2929 20.5318L41.9484 16.5946L45.8856 16.2502L45.5412 12.3135L41.604 12.6579Z" fill="#2E1B5B"/>
</g>
<mask id="mask1_133_168" style="mask-type:luminance" maskUnits="userSpaceOnUse" x="5" y="0" width="40" height="44">
<path d="M5.0293 3.9563L40.6798 0.837285L44.1337 40.3158L8.48322 43.4348L5.0293 3.9563Z" fill="white"/>
</mask>
<g mask="url(#mask1_133_168)">
<path d="M38.7006 24.8129L38.0117 16.939L41.9484 16.5946L41.604 12.6579L29.7934 13.6912L29.4489 9.75403L25.5118 10.0985L24.8229 2.22461L20.8862 2.56903L21.5751 10.4429L17.6379 10.7874L17.9824 14.7245L6.17176 15.7578L6.51618 19.6945L10.4529 19.3501L11.1418 27.224L15.0789 26.8795L15.4234 30.8167L11.4862 31.1612L12.1751 39.0351L8.23839 39.3795L8.5828 43.3162L16.4567 42.6273L16.1123 38.6906L23.9861 38.0017L23.6417 34.0646L27.5784 33.7201L27.9229 37.6573L35.7967 36.9684L36.1412 40.9051L44.015 40.2163L43.6706 36.2796L39.7339 36.624L39.045 28.7501L35.1079 29.0945L34.7634 25.1574L38.7006 24.8129Z" fill="#FFC800"/>
</g>
<path d="M6.17175 15.7578L10.1085 15.4134L10.4529 19.3501L6.51617 19.6945L6.17175 15.7578Z" fill="#F99500"/>
<path d="M10.4529 19.3501L14.39 19.0056L14.7345 22.9428L10.7973 23.2873L10.4529 19.3501Z" fill="#F99500"/>
<path d="M14.7345 22.9429L18.6712 22.5985L19.0156 26.5352L15.0789 26.8796L14.7345 22.9429Z" fill="#F99500"/>
<path d="M30.4823 21.5652L34.419 21.2208L34.7634 25.1575L30.8267 25.5019L30.4823 21.5652Z" fill="#F99500"/>
<path d="M34.0746 17.2834L38.0118 16.939L38.3562 20.8762L34.419 21.2206L34.0746 17.2834Z" fill="#F99500"/>
<path d="M37.6674 13.0024L41.6041 12.658L41.9485 16.5947L38.0118 16.9392L37.6674 13.0024Z" fill="#F99500"/>
<path d="M19.7046 34.4089L23.6418 34.0645L23.9862 38.0016L20.049 38.3461L19.7046 34.4089Z" fill="#F99500"/>
<path d="M23.2972 30.1279L27.234 29.7835L27.5784 33.7202L23.6417 34.0646L23.2972 30.1279Z" fill="#F99500"/>
<path d="M27.5785 33.7202L31.5157 33.3758L31.8601 37.3129L27.9229 37.6574L27.5785 33.7202Z" fill="#F99500"/>
<path d="M15.7678 34.7534L19.7045 34.409L20.049 38.3462L16.1123 38.6906L15.7678 34.7534Z" fill="#F99500"/>
<path d="M12.1752 39.0352L16.1123 38.6907L16.4568 42.6274L12.5196 42.9719L12.1752 39.0352Z" fill="#F99500"/>
<path d="M31.5156 33.3757L35.4523 33.0313L35.7968 36.9685L31.8601 37.3129L31.5156 33.3757Z" fill="#F99500"/>
<path d="M35.7968 36.9685L39.7339 36.624L40.0783 40.5608L36.1412 40.9052L35.7968 36.9685Z" fill="#F99500"/>
<path d="M19.3601 30.4724L23.2973 30.128L23.6417 34.0647L19.7045 34.4091L19.3601 30.4724Z" fill="#FDE292"/>
<path d="M22.9529 26.1907L26.8896 25.8463L27.2341 29.7834L23.2973 30.1278L22.9529 26.1907Z" fill="#FDE292"/>
<path d="M27.234 29.7834L31.1712 29.439L31.5156 33.3757L27.5784 33.7202L27.234 29.7834Z" fill="#FDE292"/>
<path d="M14.3901 19.0056L18.3268 18.6612L18.6713 22.5984L14.7346 22.9428L14.3901 19.0056Z" fill="#FDE292"/>
<path d="M30.1378 17.6279L34.0745 17.2835L34.419 21.2207L30.4823 21.5651L30.1378 17.6279Z" fill="#FDE292"/>
<path d="M10.1085 15.4133L14.0457 15.0689L14.3901 19.0056L10.4529 19.35L10.1085 15.4133Z" fill="#FDE292"/>
<path d="M33.7301 13.3469L37.6673 13.0025L38.0117 16.9392L34.0745 17.2836L33.7301 13.3469Z" fill="#FDE292"/>
<path d="M21.2307 6.5061L25.1674 6.16169L25.8563 14.0356L21.9196 14.38L21.2307 6.5061Z" fill="#FDE292"/>
<path d="M30.1379 17.628L26.2007 17.9724L25.8563 14.0357L21.9196 14.3802L22.264 18.3169L18.3268 18.6613L18.6713 22.5985L22.6085 22.254L22.9529 26.1907L26.8896 25.8463L26.5452 21.9096L30.4823 21.5652L30.1379 17.628Z" fill="#FFFCD2"/>
<path d="M23.6417 34.0645L27.5784 33.72L27.9229 37.6572L23.9862 38.0016L23.6417 34.0645Z" fill="#2E1B5B"/>
<path d="M10.7974 23.2874L14.7345 22.9429L15.0789 26.8796L11.1418 27.2241L10.7974 23.2874Z" fill="#2E1B5B"/>
<path d="M6.51624 19.6946L10.4529 19.3502L10.7974 23.2873L6.86069 23.6317L6.51624 19.6946Z" fill="#2E1B5B"/>
<mask id="mask2_133_168" style="mask-type:luminance" maskUnits="userSpaceOnUse" x="2" y="15" width="5" height="6">
<path d="M2.23157 16.0676L6.1765 15.7225L6.52419 19.6966L2.57926 20.0418L2.23157 16.0676Z" fill="white"/>
</mask>
<g mask="url(#mask2_133_168)">
<path d="M2.23462 16.1023L6.17179 15.7578L6.51621 19.6945L2.57904 20.039L2.23462 16.1023Z" fill="#2E1B5B"/>
</g>
<path d="M16.1123 38.6907L23.9862 38.0018L24.3306 41.9385L16.4567 42.6274L16.1123 38.6907Z" fill="#2E1B5B"/>
<path d="M27.9229 37.6572L35.7967 36.9684L36.1412 40.9051L28.2673 41.5939L27.9229 37.6572Z" fill="#2E1B5B"/>
<path d="M34.4191 21.2207L38.3562 20.8762L38.7007 24.813L34.7635 25.1574L34.4191 21.2207Z" fill="#2E1B5B"/>
<path d="M38.0117 16.939L41.9484 16.5945L42.2929 20.5317L38.3562 20.8761L38.0117 16.939Z" fill="#2E1B5B"/>
<mask id="mask3_133_168" style="mask-type:luminance" maskUnits="userSpaceOnUse" x="41" y="12" width="5" height="5">
<path d="M41.5933 12.624L45.5382 12.2789L45.8859 16.253L41.941 16.5982L41.5933 12.624Z" fill="white"/>
</mask>
<g mask="url(#mask3_133_168)">
<path d="M41.604 12.658L45.5412 12.3135L45.8856 16.2502L41.9484 16.5947L41.604 12.658Z" fill="#2E1B5B"/>
</g>
<mask id="mask4_133_168" style="mask-type:luminance" maskUnits="userSpaceOnUse" x="36" y="40" width="9" height="5">
<path d="M36.0583 40.9045L44.1235 40.1989L44.4687 44.1439L36.4035 44.8495L36.0583 40.9045Z" fill="white"/>
</mask>
<g mask="url(#mask4_133_168)">
<path d="M36.1412 40.905L44.0151 40.2162L44.3596 44.1533L36.4857 44.8422L36.1412 40.905Z" fill="#2E1B5B"/>
</g>
<mask id="mask5_133_168" style="mask-type:luminance" maskUnits="userSpaceOnUse" x="8" y="42" width="9" height="6">
<path d="M8.47302 43.3179L16.5382 42.6123L16.8834 46.5572L8.81816 47.2628L8.47302 43.3179Z" fill="white"/>
</mask>
<g mask="url(#mask5_133_168)">
<path d="M8.58289 43.3162L16.4568 42.6273L16.8012 46.5645L8.92734 47.2533L8.58289 43.3162Z" fill="#2E1B5B"/>
</g>
</g>
<defs>
<clipPath id="clip0_133_168">
<rect width="44" height="44" fill="white" transform="translate(0.915283 4.05127) rotate(-5)"/>
</clipPath>
</defs>
</svg>
