<svg xmlns="http://www.w3.org/2000/svg" xmlns:xlink="http://www.w3.org/1999/xlink" width="500" zoomAndPan="magnify" viewBox="0 0 375 374.999991" height="500" preserveAspectRatio="xMidYMid meet" version="1.0"><defs><clipPath id="72ba9a84b9"><path d="M 101 101 L 356.25 101 L 356.25 255 L 101 255 Z M 101 101 " clip-rule="nonzero"/></clipPath><clipPath id="2e0a633784"><path d="M 136 37.945312 L 150 37.945312 L 150 74 L 136 74 Z M 136 37.945312 " clip-rule="nonzero"/></clipPath><clipPath id="997d164f92"><path d="M 18.75 155 L 55 155 L 55 169 L 18.75 169 Z M 18.75 155 " clip-rule="nonzero"/></clipPath><clipPath id="13aa5e3085"><path d="M 49 183 L 305 183 L 305 337.195312 L 49 337.195312 Z M 49 183 " clip-rule="nonzero"/></clipPath></defs><g clip-path="url(#72ba9a84b9)"><path fill="#aee3fc" d="M 318.441406 168.863281 C 320.1875 163.703125 321.132812 158.175781 321.132812 152.425781 C 321.132812 124.09375 298.164062 101.128906 269.832031 101.128906 C 249.496094 101.128906 231.925781 112.960938 223.625 130.117188 C 217.914062 126.882812 211.316406 125.027344 204.28125 125.027344 C 186.257812 125.027344 171.074219 137.152344 166.417969 153.6875 C 162.058594 152.488281 157.476562 151.847656 152.738281 151.847656 C 124.273438 151.847656 101.199219 174.921875 101.199219 203.390625 C 101.199219 231.855469 124.273438 254.929688 152.738281 254.929688 L 313.039062 254.929688 C 336.90625 254.929688 356.25 235.585938 356.25 211.722656 C 356.25 189.691406 339.753906 171.523438 318.441406 168.863281 " fill-opacity="1" fill-rule="nonzero"/></g><path fill="#f9ae00" d="M 100.546875 212.585938 C 86.085938 200.488281 76.882812 182.3125 76.882812 161.984375 C 76.882812 125.566406 106.40625 96.046875 142.820312 96.046875 C 179.234375 96.046875 208.757812 125.566406 208.757812 161.984375 C 208.757812 198.398438 179.234375 227.917969 142.820312 227.917969 C 126.730469 227.917969 111.992188 222.160156 100.546875 212.585938 " fill-opacity="1" fill-rule="nonzero"/><g clip-path="url(#2e0a633784)"><path fill="#fdd83b" d="M 142.820312 73.921875 C 139.105469 73.921875 136.097656 70.910156 136.097656 67.195312 L 136.097656 44.636719 C 136.097656 40.925781 139.105469 37.914062 142.820312 37.914062 C 146.535156 37.914062 149.542969 40.925781 149.542969 44.636719 L 149.542969 67.195312 C 149.542969 70.910156 146.535156 73.921875 142.820312 73.921875 " fill-opacity="1" fill-rule="nonzero"/></g><path fill="#fdd83b" d="M 142.820312 286.050781 C 139.105469 286.050781 136.097656 283.042969 136.097656 279.328125 L 136.097656 256.769531 C 136.097656 253.054688 139.105469 250.046875 142.820312 250.046875 C 146.535156 250.046875 149.542969 253.054688 149.542969 256.769531 L 149.542969 279.328125 C 149.542969 283.042969 146.535156 286.050781 142.820312 286.050781 " fill-opacity="1" fill-rule="nonzero"/><path fill="#fdd83b" d="M 95.433594 86.621094 C 93.109375 86.621094 90.851562 85.414062 89.605469 83.257812 L 78.324219 63.71875 C 76.46875 60.503906 77.570312 56.394531 80.785156 54.535156 C 84 52.679688 88.113281 53.78125 89.972656 56.996094 L 101.25 76.53125 C 103.105469 79.75 102.003906 83.859375 98.789062 85.71875 C 97.730469 86.328125 96.574219 86.621094 95.433594 86.621094 " fill-opacity="1" fill-rule="nonzero"/><path fill="#fdd83b" d="M 201.5 270.332031 C 199.175781 270.332031 196.917969 269.125 195.671875 266.96875 L 184.390625 247.433594 C 182.535156 244.214844 183.636719 240.105469 186.851562 238.25 C 190.070312 236.390625 194.179688 237.492188 196.035156 240.710938 L 207.316406 260.246094 C 209.171875 263.460938 208.070312 267.574219 204.855469 269.429688 C 203.796875 270.042969 202.640625 270.332031 201.5 270.332031 " fill-opacity="1" fill-rule="nonzero"/><path fill="#fdd83b" d="M 60.726562 121.316406 C 59.585938 121.316406 58.429688 121.023438 57.371094 120.410156 L 37.832031 109.132812 C 34.617188 107.273438 33.515625 103.164062 35.371094 99.949219 C 37.230469 96.734375 41.339844 95.628906 44.554688 97.488281 L 64.09375 108.765625 C 67.308594 110.625 68.414062 114.738281 66.554688 117.949219 C 65.3125 120.105469 63.050781 121.316406 60.726562 121.316406 " fill-opacity="1" fill-rule="nonzero"/><path fill="#fdd83b" d="M 244.4375 227.378906 C 243.300781 227.378906 242.144531 227.089844 241.082031 226.480469 L 221.546875 215.199219 C 218.332031 213.34375 217.230469 209.230469 219.085938 206.015625 C 220.941406 202.796875 225.054688 201.699219 228.269531 203.554688 L 247.804688 214.835938 C 251.023438 216.691406 252.121094 220.800781 250.265625 224.019531 C 249.019531 226.175781 246.761719 227.378906 244.4375 227.378906 " fill-opacity="1" fill-rule="nonzero"/><g clip-path="url(#997d164f92)"><path fill="#fdd83b" d="M 48.03125 168.707031 L 25.472656 168.707031 C 21.761719 168.707031 18.75 165.695312 18.75 161.984375 C 18.75 158.269531 21.761719 155.261719 25.472656 155.261719 L 48.03125 155.261719 C 51.746094 155.261719 54.757812 158.269531 54.757812 161.984375 C 54.757812 165.695312 51.746094 168.707031 48.03125 168.707031 " fill-opacity="1" fill-rule="nonzero"/></g><path fill="#fdd83b" d="M 41.203125 227.378906 C 38.878906 227.378906 36.621094 226.175781 35.371094 224.019531 C 33.515625 220.800781 34.617188 216.691406 37.832031 214.835938 L 57.371094 203.554688 C 60.585938 201.699219 64.699219 202.800781 66.554688 206.015625 C 68.414062 209.230469 67.308594 213.34375 64.09375 215.199219 L 44.554688 226.480469 C 43.496094 227.089844 42.34375 227.378906 41.203125 227.378906 " fill-opacity="1" fill-rule="nonzero"/><path fill="#fdd83b" d="M 224.914062 121.316406 C 222.589844 121.316406 220.332031 120.109375 219.085938 117.949219 C 217.230469 114.738281 218.332031 110.625 221.546875 108.765625 L 241.082031 97.488281 C 244.300781 95.628906 248.410156 96.730469 250.265625 99.949219 C 252.121094 103.164062 251.023438 107.273438 247.804688 109.132812 L 228.269531 120.410156 C 227.210938 121.023438 226.054688 121.316406 224.914062 121.316406 " fill-opacity="1" fill-rule="nonzero"/><path fill="#fdd83b" d="M 84.140625 270.332031 C 83 270.332031 81.84375 270.042969 80.785156 269.429688 C 77.570312 267.574219 76.46875 263.460938 78.324219 260.246094 L 89.605469 240.710938 C 91.460938 237.492188 95.574219 236.390625 98.789062 238.25 C 102.003906 240.105469 103.105469 244.214844 101.25 247.433594 L 89.972656 266.96875 C 88.722656 269.125 86.464844 270.332031 84.140625 270.332031 " fill-opacity="1" fill-rule="nonzero"/><path fill="#fdd83b" d="M 190.207031 86.621094 C 189.066406 86.621094 187.914062 86.328125 186.851562 85.71875 C 183.636719 83.859375 182.535156 79.75 184.390625 76.53125 L 195.671875 56.996094 C 197.527344 53.78125 201.640625 52.675781 204.855469 54.535156 C 208.070312 56.394531 209.171875 60.503906 207.316406 63.71875 L 196.035156 83.257812 C 194.789062 85.414062 192.53125 86.621094 190.207031 86.621094 " fill-opacity="1" fill-rule="nonzero"/><g clip-path="url(#13aa5e3085)"><path fill="#d7f2ff" d="M 266.894531 250.953125 C 268.636719 245.792969 269.582031 240.261719 269.582031 234.515625 C 269.582031 206.183594 246.613281 183.214844 218.28125 183.214844 C 197.945312 183.214844 180.375 195.046875 172.078125 212.207031 C 166.363281 208.972656 159.765625 207.117188 152.730469 207.117188 C 134.707031 207.117188 119.527344 219.242188 114.863281 235.773438 C 110.511719 234.574219 105.925781 233.933594 101.191406 233.933594 C 72.722656 233.933594 49.648438 257.011719 49.648438 285.476562 C 49.648438 313.945312 72.722656 337.019531 101.191406 337.019531 L 261.492188 337.019531 C 285.351562 337.019531 304.695312 317.671875 304.695312 293.8125 C 304.695312 271.777344 288.203125 253.613281 266.894531 250.953125 " fill-opacity="1" fill-rule="nonzero"/></g></svg>